<?xml version="1.0" encoding="UTF-8" standalone="no"?>
<!DOCTYPE svg PUBLIC "-//W3C//DTD SVG 1.1//EN"
 "http://www.w3.org/Graphics/SVG/1.1/DTD/svg11.dtd">
<!-- Generated by graphviz version 2.49.0 (0)
 -->
<!-- Pages: 1 -->
<svg width="394pt" height="191pt"
 viewBox="0.00 0.00 393.50 191.00" xmlns="http://www.w3.org/2000/svg" xmlns:xlink="http://www.w3.org/1999/xlink">
<g id="graph0" class="graph" transform="scale(1 1) rotate(0) translate(4 187)">
<polygon fill="white" stroke="transparent" points="-4,4 -4,-187 389.5,-187 389.5,4 -4,4"/>
<!-- 4424810128 -->
<g id="node1" class="node">
<title>4424810128</title>
<path fill="lightgray" stroke="lightgray" d="M165.5,-146.5C165.5,-146.5 221.5,-146.5 221.5,-146.5 227.5,-146.5 233.5,-152.5 233.5,-158.5 233.5,-158.5 233.5,-170.5 233.5,-170.5 233.5,-176.5 227.5,-182.5 221.5,-182.5 221.5,-182.5 165.5,-182.5 165.5,-182.5 159.5,-182.5 153.5,-176.5 153.5,-170.5 153.5,-170.5 153.5,-158.5 153.5,-158.5 153.5,-152.5 159.5,-146.5 165.5,-146.5"/>
<text text-anchor="middle" x="163.5" y="-160.8" font-family="Times,serif" font-size="14.00"> </text>
<polyline fill="none" stroke="lightgray" points="173.5,-146.5 173.5,-182.5 "/>
<text text-anchor="middle" x="193.5" y="-160.8" font-family="Times,serif" font-size="14.00">tone</text>
<polyline fill="none" stroke="lightgray" points="213.5,-146.5 213.5,-182.5 "/>
<text text-anchor="middle" x="223.5" y="-160.8" font-family="Times,serif" font-size="14.00"> </text>
</g>
<!-- 4424703888 -->
<g id="node2" class="node">
<title>4424703888</title>
<path fill="lightgray" stroke="lightgray" d="M49.5,-73.5C49.5,-73.5 139.5,-73.5 139.5,-73.5 145.5,-73.5 151.5,-79.5 151.5,-85.5 151.5,-85.5 151.5,-97.5 151.5,-97.5 151.5,-103.5 145.5,-109.5 139.5,-109.5 139.5,-109.5 49.5,-109.5 49.5,-109.5 43.5,-109.5 37.5,-103.5 37.5,-97.5 37.5,-97.5 37.5,-85.5 37.5,-85.5 37.5,-79.5 43.5,-73.5 49.5,-73.5"/>
<text text-anchor="middle" x="47.5" y="-87.8" font-family="Times,serif" font-size="14.00"> </text>
<polyline fill="none" stroke="lightgray" points="57.5,-73.5 57.5,-109.5 "/>
<text text-anchor="middle" x="94.5" y="-87.8" font-family="Times,serif" font-size="14.00">Ascending</text>
<polyline fill="none" stroke="lightgray" points="131.5,-73.5 131.5,-109.5 "/>
<text text-anchor="middle" x="141.5" y="-87.8" font-family="Times,serif" font-size="14.00"> </text>
</g>
<!-- 4424810128&#45;&gt;4424703888 -->
<g id="edge1" class="edge">
<title>4424810128:l&#45;&gt;4424703888:v</title>
<path fill="none" stroke="black" d="M163.5,-146C163.5,-115.73 110.67,-137.35 97.46,-120.06"/>
<polygon fill="black" stroke="black" points="100.68,-118.6 94.5,-110 93.97,-120.58 100.68,-118.6"/>
</g>
<!-- 4424809232 -->
<g id="node3" class="node">
<title>4424809232</title>
<path fill="lightgray" stroke="lightgray" d="M244.5,-73.5C244.5,-73.5 340.5,-73.5 340.5,-73.5 346.5,-73.5 352.5,-79.5 352.5,-85.5 352.5,-85.5 352.5,-97.5 352.5,-97.5 352.5,-103.5 346.5,-109.5 340.5,-109.5 340.5,-109.5 244.5,-109.5 244.5,-109.5 238.5,-109.5 232.5,-103.5 232.5,-97.5 232.5,-97.5 232.5,-85.5 232.5,-85.5 232.5,-79.5 238.5,-73.5 244.5,-73.5"/>
<text text-anchor="middle" x="242.5" y="-87.8" font-family="Times,serif" font-size="14.00"> </text>
<polyline fill="none" stroke="lightgray" points="252.5,-73.5 252.5,-109.5 "/>
<text text-anchor="middle" x="292.5" y="-87.8" font-family="Times,serif" font-size="14.00">Descending</text>
<polyline fill="none" stroke="lightgray" points="332.5,-73.5 332.5,-109.5 "/>
<text text-anchor="middle" x="342.5" y="-87.8" font-family="Times,serif" font-size="14.00"> </text>
</g>
<!-- 4424810128&#45;&gt;4424809232 -->
<g id="edge2" class="edge">
<title>4424810128:r&#45;&gt;4424809232:v</title>
<path fill="none" stroke="black" d="M223.5,-146C223.5,-115.73 276.33,-137.35 289.54,-120.06"/>
<polygon fill="black" stroke="black" points="293.03,-120.58 292.5,-110 286.32,-118.6 293.03,-120.58"/>
</g>
<!-- 4424806736 -->
<g id="node4" class="node">
<title>4424806736</title>
<path fill="lightgray" stroke="lightgray" d="M12,-0.5C12,-0.5 69,-0.5 69,-0.5 75,-0.5 81,-6.5 81,-12.5 81,-12.5 81,-24.5 81,-24.5 81,-30.5 75,-36.5 69,-36.5 69,-36.5 12,-36.5 12,-36.5 6,-36.5 0,-30.5 0,-24.5 0,-24.5 0,-12.5 0,-12.5 0,-6.5 6,-0.5 12,-0.5"/>
<text text-anchor="middle" x="10" y="-14.8" font-family="Times,serif" font-size="14.00"> </text>
<polyline fill="none" stroke="lightgray" points="20,-0.5 20,-36.5 "/>
<text text-anchor="middle" x="40.5" y="-14.8" font-family="Times,serif" font-size="14.00">Low</text>
<polyline fill="none" stroke="lightgray" points="61,-0.5 61,-36.5 "/>
<text text-anchor="middle" x="71" y="-14.8" font-family="Times,serif" font-size="14.00"> </text>
</g>
<!-- 4424703888&#45;&gt;4424806736 -->
<g id="edge3" class="edge">
<title>4424703888:l&#45;&gt;4424806736:v</title>
<path fill="none" stroke="black" d="M47.5,-73C47.5,-60.78 43.56,-55.81 41.59,-47.21"/>
<polygon fill="black" stroke="black" points="45.05,-46.57 40.5,-37 38.09,-47.32 45.05,-46.57"/>
</g>
<!-- 4424808976 -->
<g id="node5" class="node">
<title>4424808976</title>
<path fill="lightgray" stroke="lightgray" d="M111.5,-0.5C111.5,-0.5 171.5,-0.5 171.5,-0.5 177.5,-0.5 183.5,-6.5 183.5,-12.5 183.5,-12.5 183.5,-24.5 183.5,-24.5 183.5,-30.5 177.5,-36.5 171.5,-36.5 171.5,-36.5 111.5,-36.5 111.5,-36.5 105.5,-36.5 99.5,-30.5 99.5,-24.5 99.5,-24.5 99.5,-12.5 99.5,-12.5 99.5,-6.5 105.5,-0.5 111.5,-0.5"/>
<text text-anchor="middle" x="109.5" y="-14.8" font-family="Times,serif" font-size="14.00"> </text>
<polyline fill="none" stroke="lightgray" points="119.5,-0.5 119.5,-36.5 "/>
<text text-anchor="middle" x="141.5" y="-14.8" font-family="Times,serif" font-size="14.00">High</text>
<polyline fill="none" stroke="lightgray" points="163.5,-0.5 163.5,-36.5 "/>
<text text-anchor="middle" x="173.5" y="-14.8" font-family="Times,serif" font-size="14.00"> </text>
</g>
<!-- 4424703888&#45;&gt;4424808976 -->
<g id="edge4" class="edge">
<title>4424703888:r&#45;&gt;4424808976:v</title>
<path fill="none" stroke="black" d="M141.5,-73C141.5,-61 141.5,-55.75 141.5,-47.12"/>
<polygon fill="black" stroke="black" points="145,-47 141.5,-37 138,-47 145,-47"/>
</g>
<!-- 4424808592 -->
<g id="node6" class="node">
<title>4424808592</title>
<path fill="lightgray" stroke="lightgray" d="M214,-0.5C214,-0.5 271,-0.5 271,-0.5 277,-0.5 283,-6.5 283,-12.5 283,-12.5 283,-24.5 283,-24.5 283,-30.5 277,-36.5 271,-36.5 271,-36.5 214,-36.5 214,-36.5 208,-36.5 202,-30.5 202,-24.5 202,-24.5 202,-12.5 202,-12.5 202,-6.5 208,-0.5 214,-0.5"/>
<text text-anchor="middle" x="212" y="-14.8" font-family="Times,serif" font-size="14.00"> </text>
<polyline fill="none" stroke="lightgray" points="222,-0.5 222,-36.5 "/>
<text text-anchor="middle" x="242.5" y="-14.8" font-family="Times,serif" font-size="14.00">Low</text>
<polyline fill="none" stroke="lightgray" points="263,-0.5 263,-36.5 "/>
<text text-anchor="middle" x="273" y="-14.8" font-family="Times,serif" font-size="14.00"> </text>
</g>
<!-- 4424809232&#45;&gt;4424808592 -->
<g id="edge5" class="edge">
<title>4424809232:l&#45;&gt;4424808592:v</title>
<path fill="none" stroke="black" d="M242.5,-73C242.5,-61 242.5,-55.75 242.5,-47.12"/>
<polygon fill="black" stroke="black" points="246,-47 242.5,-37 239,-47 246,-47"/>
</g>
<!-- 4424808400 -->
<g id="node7" class="node">
<title>4424808400</title>
<path fill="lightgray" stroke="lightgray" d="M313.5,-0.5C313.5,-0.5 373.5,-0.5 373.5,-0.5 379.5,-0.5 385.5,-6.5 385.5,-12.5 385.5,-12.5 385.5,-24.5 385.5,-24.5 385.5,-30.5 379.5,-36.5 373.5,-36.5 373.5,-36.5 313.5,-36.5 313.5,-36.5 307.5,-36.5 301.5,-30.5 301.5,-24.5 301.5,-24.5 301.5,-12.5 301.5,-12.5 301.5,-6.5 307.5,-0.5 313.5,-0.5"/>
<text text-anchor="middle" x="311.5" y="-14.8" font-family="Times,serif" font-size="14.00"> </text>
<polyline fill="none" stroke="lightgray" points="321.5,-0.5 321.5,-36.5 "/>
<text text-anchor="middle" x="343.5" y="-14.8" font-family="Times,serif" font-size="14.00">High</text>
<polyline fill="none" stroke="lightgray" points="365.5,-0.5 365.5,-36.5 "/>
<text text-anchor="middle" x="375.5" y="-14.8" font-family="Times,serif" font-size="14.00"> </text>
</g>
<!-- 4424809232&#45;&gt;4424808400 -->
<g id="edge6" class="edge">
<title>4424809232:r&#45;&gt;4424808400:v</title>
<path fill="none" stroke="black" d="M342.5,-73C342.5,-61 343.06,-55.75 343.34,-47.13"/>
<polygon fill="black" stroke="black" points="346.85,-47.05 343.5,-37 339.85,-46.94 346.85,-47.05"/>
</g>
</g>
</svg>