<?xml version="1.0" encoding="UTF-8" standalone="no"?>
<!DOCTYPE svg PUBLIC "-//W3C//DTD SVG 1.1//EN"
 "http://www.w3.org/Graphics/SVG/1.1/DTD/svg11.dtd">
<!-- Generated by graphviz version 2.49.0 (0)
 -->
<!-- Pages: 1 -->
<svg width="377pt" height="264pt"
 viewBox="0.00 0.00 377.00 264.00" xmlns="http://www.w3.org/2000/svg" xmlns:xlink="http://www.w3.org/1999/xlink">
<g id="graph0" class="graph" transform="scale(1 1) rotate(0) translate(4 260)">
<polygon fill="white" stroke="transparent" points="-4,4 -4,-260 373,-260 373,4 -4,4"/>
<!-- 4387833872 -->
<g id="node1" class="node">
<title>4387833872</title>
<path fill="lightgray" stroke="lightgray" d="M189,-219.5C189,-219.5 228,-219.5 228,-219.5 234,-219.5 240,-225.5 240,-231.5 240,-231.5 240,-243.5 240,-243.5 240,-249.5 234,-255.5 228,-255.5 228,-255.5 189,-255.5 189,-255.5 183,-255.5 177,-249.5 177,-243.5 177,-243.5 177,-231.5 177,-231.5 177,-225.5 183,-219.5 189,-219.5"/>
<text text-anchor="middle" x="187" y="-233.8" font-family="Times,serif" font-size="14.00"> </text>
<polyline fill="none" stroke="lightgray" points="197,-219.5 197,-255.5 "/>
<text text-anchor="middle" x="208.5" y="-233.8" font-family="Times,serif" font-size="14.00">1</text>
<polyline fill="none" stroke="lightgray" points="220,-219.5 220,-255.5 "/>
<text text-anchor="middle" x="230" y="-233.8" font-family="Times,serif" font-size="14.00"> </text>
</g>
<!-- 4387834704 -->
<g id="node2" class="node">
<title>4387834704</title>
<path fill="lightgray" stroke="lightgray" d="M119.5,-146.5C119.5,-146.5 165.5,-146.5 165.5,-146.5 171.5,-146.5 177.5,-152.5 177.5,-158.5 177.5,-158.5 177.5,-170.5 177.5,-170.5 177.5,-176.5 171.5,-182.5 165.5,-182.5 165.5,-182.5 119.5,-182.5 119.5,-182.5 113.5,-182.5 107.5,-176.5 107.5,-170.5 107.5,-170.5 107.5,-158.5 107.5,-158.5 107.5,-152.5 113.5,-146.5 119.5,-146.5"/>
<text text-anchor="middle" x="117.5" y="-160.8" font-family="Times,serif" font-size="14.00"> </text>
<polyline fill="none" stroke="lightgray" points="127.5,-146.5 127.5,-182.5 "/>
<text text-anchor="middle" x="142.5" y="-160.8" font-family="Times,serif" font-size="14.00">13</text>
<polyline fill="none" stroke="lightgray" points="157.5,-146.5 157.5,-182.5 "/>
<text text-anchor="middle" x="167.5" y="-160.8" font-family="Times,serif" font-size="14.00"> </text>
</g>
<!-- 4387833872&#45;&gt;4387834704 -->
<g id="edge1" class="edge">
<title>4387833872:l&#45;&gt;4387834704:v</title>
<path fill="none" stroke="black" d="M186.5,-219C186.5,-197.88 155.75,-204.57 145.66,-192.57"/>
<polygon fill="black" stroke="black" points="148.96,-191.4 142.5,-183 142.32,-193.59 148.96,-191.4"/>
</g>
<!-- 4387834576 -->
<g id="node3" class="node">
<title>4387834576</title>
<path fill="lightgray" stroke="lightgray" d="M255,-146.5C255,-146.5 294,-146.5 294,-146.5 300,-146.5 306,-152.5 306,-158.5 306,-158.5 306,-170.5 306,-170.5 306,-176.5 300,-182.5 294,-182.5 294,-182.5 255,-182.5 255,-182.5 249,-182.5 243,-176.5 243,-170.5 243,-170.5 243,-158.5 243,-158.5 243,-152.5 249,-146.5 255,-146.5"/>
<text text-anchor="middle" x="253" y="-160.8" font-family="Times,serif" font-size="14.00"> </text>
<polyline fill="none" stroke="lightgray" points="263,-146.5 263,-182.5 "/>
<text text-anchor="middle" x="274.5" y="-160.8" font-family="Times,serif" font-size="14.00">9</text>
<polyline fill="none" stroke="lightgray" points="286,-146.5 286,-182.5 "/>
<text text-anchor="middle" x="296" y="-160.8" font-family="Times,serif" font-size="14.00"> </text>
</g>
<!-- 4387833872&#45;&gt;4387834576 -->
<g id="edge2" class="edge">
<title>4387833872:r&#45;&gt;4387834576:v</title>
<path fill="none" stroke="black" d="M230.5,-219C230.5,-197.88 261.25,-204.57 271.34,-192.57"/>
<polygon fill="black" stroke="black" points="274.68,-193.59 274.5,-183 268.04,-191.4 274.68,-193.59"/>
</g>
<!-- 4387834768 -->
<g id="node4" class="node">
<title>4387834768</title>
<path fill="lightgray" stroke="lightgray" d="M59.5,-73.5C59.5,-73.5 105.5,-73.5 105.5,-73.5 111.5,-73.5 117.5,-79.5 117.5,-85.5 117.5,-85.5 117.5,-97.5 117.5,-97.5 117.5,-103.5 111.5,-109.5 105.5,-109.5 105.5,-109.5 59.5,-109.5 59.5,-109.5 53.5,-109.5 47.5,-103.5 47.5,-97.5 47.5,-97.5 47.5,-85.5 47.5,-85.5 47.5,-79.5 53.5,-73.5 59.5,-73.5"/>
<text text-anchor="middle" x="57.5" y="-87.8" font-family="Times,serif" font-size="14.00"> </text>
<polyline fill="none" stroke="lightgray" points="67.5,-73.5 67.5,-109.5 "/>
<text text-anchor="middle" x="82.5" y="-87.8" font-family="Times,serif" font-size="14.00">14</text>
<polyline fill="none" stroke="lightgray" points="97.5,-73.5 97.5,-109.5 "/>
<text text-anchor="middle" x="107.5" y="-87.8" font-family="Times,serif" font-size="14.00"> </text>
</g>
<!-- 4387834704&#45;&gt;4387834768 -->
<g id="edge3" class="edge">
<title>4387834704:l&#45;&gt;4387834768:v</title>
<path fill="none" stroke="black" d="M117.5,-146C117.5,-127.87 94.39,-130.17 85.73,-119.7"/>
<polygon fill="black" stroke="black" points="88.98,-118.38 82.5,-110 82.34,-120.59 88.98,-118.38"/>
</g>
<!-- 4387834896 -->
<g id="node5" class="node">
<title>4387834896</title>
<path fill="lightgray" stroke="lightgray" d="M148,-73.5C148,-73.5 187,-73.5 187,-73.5 193,-73.5 199,-79.5 199,-85.5 199,-85.5 199,-97.5 199,-97.5 199,-103.5 193,-109.5 187,-109.5 187,-109.5 148,-109.5 148,-109.5 142,-109.5 136,-103.5 136,-97.5 136,-97.5 136,-85.5 136,-85.5 136,-79.5 142,-73.5 148,-73.5"/>
<text text-anchor="middle" x="146" y="-87.8" font-family="Times,serif" font-size="14.00"> </text>
<polyline fill="none" stroke="lightgray" points="156,-73.5 156,-109.5 "/>
<text text-anchor="middle" x="167.5" y="-87.8" font-family="Times,serif" font-size="14.00">2</text>
<polyline fill="none" stroke="lightgray" points="179,-73.5 179,-109.5 "/>
<text text-anchor="middle" x="189" y="-87.8" font-family="Times,serif" font-size="14.00"> </text>
</g>
<!-- 4387834704&#45;&gt;4387834896 -->
<g id="edge4" class="edge">
<title>4387834704:r&#45;&gt;4387834896:v</title>
<path fill="none" stroke="black" d="M167.5,-146C167.5,-134 167.5,-128.75 167.5,-120.12"/>
<polygon fill="black" stroke="black" points="171,-120 167.5,-110 164,-120 171,-120"/>
</g>
<!-- 4387834960 -->
<g id="node6" class="node">
<title>4387834960</title>
<path fill="lightgray" stroke="lightgray" d="M229.5,-73.5C229.5,-73.5 275.5,-73.5 275.5,-73.5 281.5,-73.5 287.5,-79.5 287.5,-85.5 287.5,-85.5 287.5,-97.5 287.5,-97.5 287.5,-103.5 281.5,-109.5 275.5,-109.5 275.5,-109.5 229.5,-109.5 229.5,-109.5 223.5,-109.5 217.5,-103.5 217.5,-97.5 217.5,-97.5 217.5,-85.5 217.5,-85.5 217.5,-79.5 223.5,-73.5 229.5,-73.5"/>
<text text-anchor="middle" x="227.5" y="-87.8" font-family="Times,serif" font-size="14.00"> </text>
<polyline fill="none" stroke="lightgray" points="237.5,-73.5 237.5,-109.5 "/>
<text text-anchor="middle" x="252.5" y="-87.8" font-family="Times,serif" font-size="14.00">11</text>
<polyline fill="none" stroke="lightgray" points="267.5,-73.5 267.5,-109.5 "/>
<text text-anchor="middle" x="277.5" y="-87.8" font-family="Times,serif" font-size="14.00"> </text>
</g>
<!-- 4387834576&#45;&gt;4387834960 -->
<g id="edge5" class="edge">
<title>4387834576:l&#45;&gt;4387834960:v</title>
<path fill="none" stroke="black" d="M252.5,-146C252.5,-134 252.5,-128.75 252.5,-120.12"/>
<polygon fill="black" stroke="black" points="256,-120 252.5,-110 249,-120 256,-120"/>
</g>
<!-- 4387834832 -->
<g id="node7" class="node">
<title>4387834832</title>
<path fill="lightgray" stroke="lightgray" d="M318,-73.5C318,-73.5 357,-73.5 357,-73.5 363,-73.5 369,-79.5 369,-85.5 369,-85.5 369,-97.5 369,-97.5 369,-103.5 363,-109.5 357,-109.5 357,-109.5 318,-109.5 318,-109.5 312,-109.5 306,-103.5 306,-97.5 306,-97.5 306,-85.5 306,-85.5 306,-79.5 312,-73.5 318,-73.5"/>
<text text-anchor="middle" x="316" y="-87.8" font-family="Times,serif" font-size="14.00"> </text>
<polyline fill="none" stroke="lightgray" points="326,-73.5 326,-109.5 "/>
<text text-anchor="middle" x="337.5" y="-87.8" font-family="Times,serif" font-size="14.00">8</text>
<polyline fill="none" stroke="lightgray" points="349,-73.5 349,-109.5 "/>
<text text-anchor="middle" x="359" y="-87.8" font-family="Times,serif" font-size="14.00"> </text>
</g>
<!-- 4387834576&#45;&gt;4387834832 -->
<g id="edge6" class="edge">
<title>4387834576:r&#45;&gt;4387834832:v</title>
<path fill="none" stroke="black" d="M296.5,-146C296.5,-125.92 324.62,-131.04 334.28,-119.62"/>
<polygon fill="black" stroke="black" points="337.65,-120.59 337.5,-110 331.01,-118.37 337.65,-120.59"/>
</g>
<!-- 4387835088 -->
<g id="node8" class="node">
<title>4387835088</title>
<path fill="lightgray" stroke="lightgray" d="M12,-0.5C12,-0.5 51,-0.5 51,-0.5 57,-0.5 63,-6.5 63,-12.5 63,-12.5 63,-24.5 63,-24.5 63,-30.5 57,-36.5 51,-36.5 51,-36.5 12,-36.5 12,-36.5 6,-36.5 0,-30.5 0,-24.5 0,-24.5 0,-12.5 0,-12.5 0,-6.5 6,-0.5 12,-0.5"/>
<text text-anchor="middle" x="10" y="-14.8" font-family="Times,serif" font-size="14.00"> </text>
<polyline fill="none" stroke="lightgray" points="20,-0.5 20,-36.5 "/>
<text text-anchor="middle" x="31.5" y="-14.8" font-family="Times,serif" font-size="14.00">4</text>
<polyline fill="none" stroke="lightgray" points="43,-0.5 43,-36.5 "/>
<text text-anchor="middle" x="53" y="-14.8" font-family="Times,serif" font-size="14.00"> </text>
</g>
<!-- 4387834768&#45;&gt;4387835088 -->
<g id="edge7" class="edge">
<title>4387834768:l&#45;&gt;4387835088:v</title>
<path fill="none" stroke="black" d="M57.5,-73C57.5,-57.43 41.31,-56.3 34.48,-46.83"/>
<polygon fill="black" stroke="black" points="37.75,-45.55 31.5,-37 31.06,-47.59 37.75,-45.55"/>
</g>
<!-- 4387835024 -->
<g id="node9" class="node">
<title>4387835024</title>
<path fill="lightgray" stroke="lightgray" d="M93.5,-0.5C93.5,-0.5 139.5,-0.5 139.5,-0.5 145.5,-0.5 151.5,-6.5 151.5,-12.5 151.5,-12.5 151.5,-24.5 151.5,-24.5 151.5,-30.5 145.5,-36.5 139.5,-36.5 139.5,-36.5 93.5,-36.5 93.5,-36.5 87.5,-36.5 81.5,-30.5 81.5,-24.5 81.5,-24.5 81.5,-12.5 81.5,-12.5 81.5,-6.5 87.5,-0.5 93.5,-0.5"/>
<text text-anchor="middle" x="91.5" y="-14.8" font-family="Times,serif" font-size="14.00"> </text>
<polyline fill="none" stroke="lightgray" points="101.5,-0.5 101.5,-36.5 "/>
<text text-anchor="middle" x="116.5" y="-14.8" font-family="Times,serif" font-size="14.00">10</text>
<polyline fill="none" stroke="lightgray" points="131.5,-0.5 131.5,-36.5 "/>
<text text-anchor="middle" x="141.5" y="-14.8" font-family="Times,serif" font-size="14.00"> </text>
</g>
<!-- 4387834768&#45;&gt;4387835024 -->
<g id="edge8" class="edge">
<title>4387834768:r&#45;&gt;4387835024:v</title>
<path fill="none" stroke="black" d="M107.5,-73C107.5,-60.5 112.67,-55.74 115.17,-46.99"/>
<polygon fill="black" stroke="black" points="118.65,-47.37 116.5,-37 111.71,-46.45 118.65,-47.37"/>
</g>
<!-- 4387835152 -->
<g id="node10" class="node">
<title>4387835152</title>
<path fill="lightgray" stroke="lightgray" d="M199,-0.5C199,-0.5 238,-0.5 238,-0.5 244,-0.5 250,-6.5 250,-12.5 250,-12.5 250,-24.5 250,-24.5 250,-30.5 244,-36.5 238,-36.5 238,-36.5 199,-36.5 199,-36.5 193,-36.5 187,-30.5 187,-24.5 187,-24.5 187,-12.5 187,-12.5 187,-6.5 193,-0.5 199,-0.5"/>
<text text-anchor="middle" x="197" y="-14.8" font-family="Times,serif" font-size="14.00"> </text>
<polyline fill="none" stroke="lightgray" points="207,-0.5 207,-36.5 "/>
<text text-anchor="middle" x="218.5" y="-14.8" font-family="Times,serif" font-size="14.00">6</text>
<polyline fill="none" stroke="lightgray" points="230,-0.5 230,-36.5 "/>
<text text-anchor="middle" x="240" y="-14.8" font-family="Times,serif" font-size="14.00"> </text>
</g>
<!-- 4387834960&#45;&gt;4387835152 -->
<g id="edge9" class="edge">
<title>4387834960:l&#45;&gt;4387835152:v</title>
<path fill="none" stroke="black" d="M227.5,-73C227.5,-60.5 222.33,-55.74 219.83,-46.99"/>
<polygon fill="black" stroke="black" points="223.29,-46.45 218.5,-37 216.35,-47.37 223.29,-46.45"/>
</g>
<!-- 4387835216 -->
<g id="node11" class="node">
<title>4387835216</title>
<path fill="lightgray" stroke="lightgray" d="M280,-0.5C280,-0.5 319,-0.5 319,-0.5 325,-0.5 331,-6.5 331,-12.5 331,-12.5 331,-24.5 331,-24.5 331,-30.5 325,-36.5 319,-36.5 319,-36.5 280,-36.5 280,-36.5 274,-36.5 268,-30.5 268,-24.5 268,-24.5 268,-12.5 268,-12.5 268,-6.5 274,-0.5 280,-0.5"/>
<text text-anchor="middle" x="278" y="-14.8" font-family="Times,serif" font-size="14.00"> </text>
<polyline fill="none" stroke="lightgray" points="288,-0.5 288,-36.5 "/>
<text text-anchor="middle" x="299.5" y="-14.8" font-family="Times,serif" font-size="14.00">0</text>
<polyline fill="none" stroke="lightgray" points="311,-0.5 311,-36.5 "/>
<text text-anchor="middle" x="321" y="-14.8" font-family="Times,serif" font-size="14.00"> </text>
</g>
<!-- 4387834960&#45;&gt;4387835216 -->
<g id="edge10" class="edge">
<title>4387834960:r&#45;&gt;4387835216:v</title>
<path fill="none" stroke="black" d="M277.5,-73C277.5,-58.35 290.93,-56.06 296.8,-46.82"/>
<polygon fill="black" stroke="black" points="300.23,-47.57 299.5,-37 293.48,-45.72 300.23,-47.57"/>
</g>
</g>
</svg>