<?xml version="1.0" encoding="UTF-8" standalone="no"?>
<!DOCTYPE svg PUBLIC "-//W3C//DTD SVG 1.1//EN"
 "http://www.w3.org/Graphics/SVG/1.1/DTD/svg11.dtd">
<!-- Generated by graphviz version 2.49.0 (0)
 -->
<!-- Pages: 1 -->
<svg width="262pt" height="264pt"
 viewBox="0.00 0.00 262.00 264.00" xmlns="http://www.w3.org/2000/svg" xmlns:xlink="http://www.w3.org/1999/xlink">
<g id="graph0" class="graph" transform="scale(1 1) rotate(0) translate(4 260)">
<polygon fill="white" stroke="transparent" points="-4,4 -4,-260 258,-260 258,4 -4,4"/>
<!-- 4568205008 -->
<g id="node1" class="node">
<title>4568205008</title>
<path fill="lightgray" stroke="lightgray" d="M122,-219.5C122,-219.5 161,-219.5 161,-219.5 167,-219.5 173,-225.5 173,-231.5 173,-231.5 173,-243.5 173,-243.5 173,-249.5 167,-255.5 161,-255.5 161,-255.5 122,-255.5 122,-255.5 116,-255.5 110,-249.5 110,-243.5 110,-243.5 110,-231.5 110,-231.5 110,-225.5 116,-219.5 122,-219.5"/>
<text text-anchor="middle" x="120" y="-233.8" font-family="Times,serif" font-size="14.00"> </text>
<polyline fill="none" stroke="lightgray" points="130,-219.5 130,-255.5 "/>
<text text-anchor="middle" x="141.5" y="-233.8" font-family="Times,serif" font-size="14.00">2</text>
<polyline fill="none" stroke="lightgray" points="153,-219.5 153,-255.5 "/>
<text text-anchor="middle" x="163" y="-233.8" font-family="Times,serif" font-size="14.00"> </text>
</g>
<!-- 4567785488 -->
<g id="node2" class="node">
<title>4567785488</title>
<path fill="lightgray" stroke="lightgray" d="M64.5,-146.5C64.5,-146.5 110.5,-146.5 110.5,-146.5 116.5,-146.5 122.5,-152.5 122.5,-158.5 122.5,-158.5 122.5,-170.5 122.5,-170.5 122.5,-176.5 116.5,-182.5 110.5,-182.5 110.5,-182.5 64.5,-182.5 64.5,-182.5 58.5,-182.5 52.5,-176.5 52.5,-170.5 52.5,-170.5 52.5,-158.5 52.5,-158.5 52.5,-152.5 58.5,-146.5 64.5,-146.5"/>
<text text-anchor="middle" x="62.5" y="-160.8" font-family="Times,serif" font-size="14.00"> </text>
<polyline fill="none" stroke="lightgray" points="72.5,-146.5 72.5,-182.5 "/>
<text text-anchor="middle" x="87.5" y="-160.8" font-family="Times,serif" font-size="14.00">14</text>
<polyline fill="none" stroke="lightgray" points="102.5,-146.5 102.5,-182.5 "/>
<text text-anchor="middle" x="112.5" y="-160.8" font-family="Times,serif" font-size="14.00"> </text>
</g>
<!-- 4568205008&#45;&gt;4567785488 -->
<g id="edge1" class="edge">
<title>4568205008:l&#45;&gt;4567785488:v</title>
<path fill="none" stroke="black" d="M119.5,-219C119.5,-201.77 98.78,-202.82 90.69,-192.73"/>
<polygon fill="black" stroke="black" points="93.94,-191.42 87.5,-183 87.28,-193.59 93.94,-191.42"/>
</g>
<!-- 4568205456 -->
<g id="node3" class="node">
<title>4568205456</title>
<path fill="lightgray" stroke="lightgray" d="M176,-146.5C176,-146.5 215,-146.5 215,-146.5 221,-146.5 227,-152.5 227,-158.5 227,-158.5 227,-170.5 227,-170.5 227,-176.5 221,-182.5 215,-182.5 215,-182.5 176,-182.5 176,-182.5 170,-182.5 164,-176.5 164,-170.5 164,-170.5 164,-158.5 164,-158.5 164,-152.5 170,-146.5 176,-146.5"/>
<text text-anchor="middle" x="174" y="-160.8" font-family="Times,serif" font-size="14.00"> </text>
<polyline fill="none" stroke="lightgray" points="184,-146.5 184,-182.5 "/>
<text text-anchor="middle" x="195.5" y="-160.8" font-family="Times,serif" font-size="14.00">3</text>
<polyline fill="none" stroke="lightgray" points="207,-146.5 207,-182.5 "/>
<text text-anchor="middle" x="217" y="-160.8" font-family="Times,serif" font-size="14.00"> </text>
</g>
<!-- 4568205008&#45;&gt;4568205456 -->
<g id="edge2" class="edge">
<title>4568205008:r&#45;&gt;4568205456:v</title>
<path fill="none" stroke="black" d="M163.5,-219C163.5,-201.77 184.22,-202.82 192.31,-192.73"/>
<polygon fill="black" stroke="black" points="195.72,-193.59 195.5,-183 189.06,-191.42 195.72,-193.59"/>
</g>
<!-- 4568205712 -->
<g id="node4" class="node">
<title>4568205712</title>
<path fill="lightgray" stroke="lightgray" d="M12,-73.5C12,-73.5 51,-73.5 51,-73.5 57,-73.5 63,-79.5 63,-85.5 63,-85.5 63,-97.5 63,-97.5 63,-103.5 57,-109.5 51,-109.5 51,-109.5 12,-109.5 12,-109.5 6,-109.5 0,-103.5 0,-97.5 0,-97.5 0,-85.5 0,-85.5 0,-79.5 6,-73.5 12,-73.5"/>
<text text-anchor="middle" x="10" y="-87.8" font-family="Times,serif" font-size="14.00"> </text>
<polyline fill="none" stroke="lightgray" points="20,-73.5 20,-109.5 "/>
<text text-anchor="middle" x="31.5" y="-87.8" font-family="Times,serif" font-size="14.00">0</text>
<polyline fill="none" stroke="lightgray" points="43,-73.5 43,-109.5 "/>
<text text-anchor="middle" x="53" y="-87.8" font-family="Times,serif" font-size="14.00"> </text>
</g>
<!-- 4567785488&#45;&gt;4568205712 -->
<g id="edge3" class="edge">
<title>4567785488:l&#45;&gt;4568205712:v</title>
<path fill="none" stroke="black" d="M62.5,-146C62.5,-129.01 42.43,-129.72 34.59,-119.65"/>
<polygon fill="black" stroke="black" points="37.88,-118.46 31.5,-110 31.21,-120.59 37.88,-118.46"/>
</g>
<!-- 4568205584 -->
<g id="node5" class="node">
<title>4568205584</title>
<path fill="lightgray" stroke="lightgray" d="M93,-73.5C93,-73.5 132,-73.5 132,-73.5 138,-73.5 144,-79.5 144,-85.5 144,-85.5 144,-97.5 144,-97.5 144,-103.5 138,-109.5 132,-109.5 132,-109.5 93,-109.5 93,-109.5 87,-109.5 81,-103.5 81,-97.5 81,-97.5 81,-85.5 81,-85.5 81,-79.5 87,-73.5 93,-73.5"/>
<text text-anchor="middle" x="91" y="-87.8" font-family="Times,serif" font-size="14.00"> </text>
<polyline fill="none" stroke="lightgray" points="101,-73.5 101,-109.5 "/>
<text text-anchor="middle" x="112.5" y="-87.8" font-family="Times,serif" font-size="14.00">9</text>
<polyline fill="none" stroke="lightgray" points="124,-73.5 124,-109.5 "/>
<text text-anchor="middle" x="134" y="-87.8" font-family="Times,serif" font-size="14.00"> </text>
</g>
<!-- 4567785488&#45;&gt;4568205584 -->
<g id="edge4" class="edge">
<title>4567785488:r&#45;&gt;4568205584:v</title>
<path fill="none" stroke="black" d="M112.5,-146C112.5,-134 112.5,-128.75 112.5,-120.12"/>
<polygon fill="black" stroke="black" points="116,-120 112.5,-110 109,-120 116,-120"/>
</g>
<!-- 4568205648 -->
<g id="node6" class="node">
<title>4568205648</title>
<path fill="lightgray" stroke="lightgray" d="M174.5,-73.5C174.5,-73.5 220.5,-73.5 220.5,-73.5 226.5,-73.5 232.5,-79.5 232.5,-85.5 232.5,-85.5 232.5,-97.5 232.5,-97.5 232.5,-103.5 226.5,-109.5 220.5,-109.5 220.5,-109.5 174.5,-109.5 174.5,-109.5 168.5,-109.5 162.5,-103.5 162.5,-97.5 162.5,-97.5 162.5,-85.5 162.5,-85.5 162.5,-79.5 168.5,-73.5 174.5,-73.5"/>
<text text-anchor="middle" x="172.5" y="-87.8" font-family="Times,serif" font-size="14.00"> </text>
<polyline fill="none" stroke="lightgray" points="182.5,-73.5 182.5,-109.5 "/>
<text text-anchor="middle" x="197.5" y="-87.8" font-family="Times,serif" font-size="14.00">10</text>
<polyline fill="none" stroke="lightgray" points="212.5,-73.5 212.5,-109.5 "/>
<text text-anchor="middle" x="222.5" y="-87.8" font-family="Times,serif" font-size="14.00"> </text>
</g>
<!-- 4568205456&#45;&gt;4568205648 -->
<g id="edge5" class="edge">
<title>4568205456:l&#45;&gt;4568205648:v</title>
<path fill="none" stroke="black" d="M173.5,-146C173.5,-130.83 188.44,-129.16 194.75,-119.68"/>
<polygon fill="black" stroke="black" points="198.13,-120.58 197.5,-110 191.4,-118.66 198.13,-120.58"/>
</g>
<!-- 4568205776 -->
<g id="node7" class="node">
<title>4568205776</title>
<path fill="lightgray" stroke="lightgray" d="M34,-0.5C34,-0.5 73,-0.5 73,-0.5 79,-0.5 85,-6.5 85,-12.5 85,-12.5 85,-24.5 85,-24.5 85,-30.5 79,-36.5 73,-36.5 73,-36.5 34,-36.5 34,-36.5 28,-36.5 22,-30.5 22,-24.5 22,-24.5 22,-12.5 22,-12.5 22,-6.5 28,-0.5 34,-0.5"/>
<text text-anchor="middle" x="32" y="-14.8" font-family="Times,serif" font-size="14.00"> </text>
<polyline fill="none" stroke="lightgray" points="42,-0.5 42,-36.5 "/>
<text text-anchor="middle" x="53.5" y="-14.8" font-family="Times,serif" font-size="14.00">5</text>
<polyline fill="none" stroke="lightgray" points="65,-0.5 65,-36.5 "/>
<text text-anchor="middle" x="75" y="-14.8" font-family="Times,serif" font-size="14.00"> </text>
</g>
<!-- 4568205712&#45;&gt;4568205776 -->
<g id="edge6" class="edge">
<title>4568205712:r&#45;&gt;4568205776:v</title>
<path fill="none" stroke="black" d="M53.5,-73C53.5,-61 53.5,-55.75 53.5,-47.12"/>
<polygon fill="black" stroke="black" points="57,-47 53.5,-37 50,-47 57,-47"/>
</g>
<!-- 4568205840 -->
<g id="node8" class="node">
<title>4568205840</title>
<path fill="lightgray" stroke="lightgray" d="M203,-0.5C203,-0.5 242,-0.5 242,-0.5 248,-0.5 254,-6.5 254,-12.5 254,-12.5 254,-24.5 254,-24.5 254,-30.5 248,-36.5 242,-36.5 242,-36.5 203,-36.5 203,-36.5 197,-36.5 191,-30.5 191,-24.5 191,-24.5 191,-12.5 191,-12.5 191,-6.5 197,-0.5 203,-0.5"/>
<text text-anchor="middle" x="201" y="-14.8" font-family="Times,serif" font-size="14.00"> </text>
<polyline fill="none" stroke="lightgray" points="211,-0.5 211,-36.5 "/>
<text text-anchor="middle" x="222.5" y="-14.8" font-family="Times,serif" font-size="14.00">4</text>
<polyline fill="none" stroke="lightgray" points="234,-0.5 234,-36.5 "/>
<text text-anchor="middle" x="244" y="-14.8" font-family="Times,serif" font-size="14.00"> </text>
</g>
<!-- 4568205648&#45;&gt;4568205840 -->
<g id="edge7" class="edge">
<title>4568205648:r&#45;&gt;4568205840:v</title>
<path fill="none" stroke="black" d="M222.5,-73C222.5,-61 222.5,-55.75 222.5,-47.12"/>
<polygon fill="black" stroke="black" points="226,-47 222.5,-37 219,-47 226,-47"/>
</g>
</g>
</svg>