<?xml version="1.0" encoding="UTF-8" standalone="no"?>
<!DOCTYPE svg PUBLIC "-//W3C//DTD SVG 1.1//EN"
 "http://www.w3.org/Graphics/SVG/1.1/DTD/svg11.dtd">
<!-- Generated by graphviz version 2.50.0 (0)
 -->
<!-- Pages: 1 -->
<svg width="240pt" height="118pt"
 viewBox="0.00 0.00 239.50 118.00" xmlns="http://www.w3.org/2000/svg" xmlns:xlink="http://www.w3.org/1999/xlink">
<g id="graph0" class="graph" transform="scale(1 1) rotate(0) translate(4 114)">
<polygon fill="white" stroke="transparent" points="-4,4 -4,-114 235.5,-114 235.5,4 -4,4"/>
<!-- 4387409616 -->
<g id="node1" class="node">
<title>4387409616</title>
<path fill="lightgray" stroke="lightgray" d="M86,-73.5C86,-73.5 142,-73.5 142,-73.5 148,-73.5 154,-79.5 154,-85.5 154,-85.5 154,-97.5 154,-97.5 154,-103.5 148,-109.5 142,-109.5 142,-109.5 86,-109.5 86,-109.5 80,-109.5 74,-103.5 74,-97.5 74,-97.5 74,-85.5 74,-85.5 74,-79.5 80,-73.5 86,-73.5"/>
<text text-anchor="middle" x="84" y="-87.8" font-family="Times,serif" font-size="14.00"> </text>
<polyline fill="none" stroke="lightgray" points="94,-73.5 94,-109.5 "/>
<text text-anchor="middle" x="114" y="-87.8" font-family="Times,serif" font-size="14.00">tone</text>
<polyline fill="none" stroke="lightgray" points="134,-73.5 134,-109.5 "/>
<text text-anchor="middle" x="144" y="-87.8" font-family="Times,serif" font-size="14.00"> </text>
</g>
<!-- 4387410192 -->
<g id="node2" class="node">
<title>4387410192</title>
<path fill="lightgray" stroke="lightgray" d="M12,-0.5C12,-0.5 92,-0.5 92,-0.5 98,-0.5 104,-6.5 104,-12.5 104,-12.5 104,-24.5 104,-24.5 104,-30.5 98,-36.5 92,-36.5 92,-36.5 12,-36.5 12,-36.5 6,-36.5 0,-30.5 0,-24.5 0,-24.5 0,-12.5 0,-12.5 0,-6.5 6,-0.5 12,-0.5"/>
<text text-anchor="middle" x="10" y="-14.8" font-family="Times,serif" font-size="14.00"> </text>
<polyline fill="none" stroke="lightgray" points="20,-0.5 20,-36.5 "/>
<text text-anchor="middle" x="52" y="-14.8" font-family="Times,serif" font-size="14.00">Elevated</text>
<polyline fill="none" stroke="lightgray" points="84,-0.5 84,-36.5 "/>
<text text-anchor="middle" x="94" y="-14.8" font-family="Times,serif" font-size="14.00"> </text>
</g>
<!-- 4387409616&#45;&gt;4387410192 -->
<g id="edge1" class="edge">
<title>4387409616:l&#45;&gt;4387410192:v</title>
<path fill="none" stroke="black" d="M84,-73C84,-55.77 63.28,-56.82 55.19,-46.73"/>
<polygon fill="black" stroke="black" points="58.44,-45.42 52,-37 51.78,-47.59 58.44,-45.42"/>
</g>
<!-- 4387410320 -->
<g id="node3" class="node">
<title>4387410320</title>
<path fill="lightgray" stroke="lightgray" d="M134.5,-0.5C134.5,-0.5 219.5,-0.5 219.5,-0.5 225.5,-0.5 231.5,-6.5 231.5,-12.5 231.5,-12.5 231.5,-24.5 231.5,-24.5 231.5,-30.5 225.5,-36.5 219.5,-36.5 219.5,-36.5 134.5,-36.5 134.5,-36.5 128.5,-36.5 122.5,-30.5 122.5,-24.5 122.5,-24.5 122.5,-12.5 122.5,-12.5 122.5,-6.5 128.5,-0.5 134.5,-0.5"/>
<text text-anchor="middle" x="132.5" y="-14.8" font-family="Times,serif" font-size="14.00"> </text>
<polyline fill="none" stroke="lightgray" points="142.5,-0.5 142.5,-36.5 "/>
<text text-anchor="middle" x="177" y="-14.8" font-family="Times,serif" font-size="14.00">elongated</text>
<polyline fill="none" stroke="lightgray" points="211.5,-0.5 211.5,-36.5 "/>
<text text-anchor="middle" x="221.5" y="-14.8" font-family="Times,serif" font-size="14.00"> </text>
</g>
<!-- 4387409616&#45;&gt;4387410320 -->
<g id="edge2" class="edge">
<title>4387409616:r&#45;&gt;4387410320:v</title>
<path fill="none" stroke="black" d="M144,-73C144,-55.53 165.37,-56.92 173.72,-46.82"/>
<polygon fill="black" stroke="black" points="177.15,-47.59 177,-37 170.51,-45.37 177.15,-47.59"/>
</g>
</g>
</svg>