<?xml version="1.0" encoding="UTF-8" standalone="no"?>
<!DOCTYPE svg PUBLIC "-//W3C//DTD SVG 1.1//EN"
 "http://www.w3.org/Graphics/SVG/1.1/DTD/svg11.dtd">
<!-- Generated by graphviz version 2.49.0 (0)
 -->
<!-- Pages: 1 -->
<svg width="344pt" height="264pt"
 viewBox="0.00 0.00 343.50 264.00" xmlns="http://www.w3.org/2000/svg" xmlns:xlink="http://www.w3.org/1999/xlink">
<g id="graph0" class="graph" transform="scale(1 1) rotate(0) translate(4 260)">
<polygon fill="white" stroke="transparent" points="-4,4 -4,-260 339.5,-260 339.5,4 -4,4"/>
<!-- 4435564176 -->
<g id="node1" class="node">
<title>4435564176</title>
<path fill="lightgray" stroke="lightgray" d="M157,-219.5C157,-219.5 196,-219.5 196,-219.5 202,-219.5 208,-225.5 208,-231.5 208,-231.5 208,-243.5 208,-243.5 208,-249.5 202,-255.5 196,-255.5 196,-255.5 157,-255.5 157,-255.5 151,-255.5 145,-249.5 145,-243.5 145,-243.5 145,-231.5 145,-231.5 145,-225.5 151,-219.5 157,-219.5"/>
<text text-anchor="middle" x="155" y="-233.8" font-family="Times,serif" font-size="14.00"> </text>
<polyline fill="none" stroke="lightgray" points="165,-219.5 165,-255.5 "/>
<text text-anchor="middle" x="176.5" y="-233.8" font-family="Times,serif" font-size="14.00">9</text>
<polyline fill="none" stroke="lightgray" points="188,-219.5 188,-255.5 "/>
<text text-anchor="middle" x="198" y="-233.8" font-family="Times,serif" font-size="14.00"> </text>
</g>
<!-- 4437910096 -->
<g id="node2" class="node">
<title>4437910096</title>
<path fill="lightgray" stroke="lightgray" d="M93,-146.5C93,-146.5 132,-146.5 132,-146.5 138,-146.5 144,-152.5 144,-158.5 144,-158.5 144,-170.5 144,-170.5 144,-176.5 138,-182.5 132,-182.5 132,-182.5 93,-182.5 93,-182.5 87,-182.5 81,-176.5 81,-170.5 81,-170.5 81,-158.5 81,-158.5 81,-152.5 87,-146.5 93,-146.5"/>
<text text-anchor="middle" x="91" y="-160.8" font-family="Times,serif" font-size="14.00"> </text>
<polyline fill="none" stroke="lightgray" points="101,-146.5 101,-182.5 "/>
<text text-anchor="middle" x="112.5" y="-160.8" font-family="Times,serif" font-size="14.00">7</text>
<polyline fill="none" stroke="lightgray" points="124,-146.5 124,-182.5 "/>
<text text-anchor="middle" x="134" y="-160.8" font-family="Times,serif" font-size="14.00"> </text>
</g>
<!-- 4435564176&#45;&gt;4437910096 -->
<g id="edge1" class="edge">
<title>4435564176:l&#45;&gt;4437910096:v</title>
<path fill="none" stroke="black" d="M154.5,-219C154.5,-198.64 125.7,-204.17 115.8,-192.71"/>
<polygon fill="black" stroke="black" points="119.03,-191.35 112.5,-183 112.4,-193.59 119.03,-191.35"/>
</g>
<!-- 4438443856 -->
<g id="node3" class="node">
<title>4438443856</title>
<path fill="lightgray" stroke="lightgray" d="M217.5,-146.5C217.5,-146.5 263.5,-146.5 263.5,-146.5 269.5,-146.5 275.5,-152.5 275.5,-158.5 275.5,-158.5 275.5,-170.5 275.5,-170.5 275.5,-176.5 269.5,-182.5 263.5,-182.5 263.5,-182.5 217.5,-182.5 217.5,-182.5 211.5,-182.5 205.5,-176.5 205.5,-170.5 205.5,-170.5 205.5,-158.5 205.5,-158.5 205.5,-152.5 211.5,-146.5 217.5,-146.5"/>
<text text-anchor="middle" x="215.5" y="-160.8" font-family="Times,serif" font-size="14.00"> </text>
<polyline fill="none" stroke="lightgray" points="225.5,-146.5 225.5,-182.5 "/>
<text text-anchor="middle" x="240.5" y="-160.8" font-family="Times,serif" font-size="14.00">10</text>
<polyline fill="none" stroke="lightgray" points="255.5,-146.5 255.5,-182.5 "/>
<text text-anchor="middle" x="265.5" y="-160.8" font-family="Times,serif" font-size="14.00"> </text>
</g>
<!-- 4435564176&#45;&gt;4438443856 -->
<g id="edge2" class="edge">
<title>4435564176:r&#45;&gt;4438443856:v</title>
<path fill="none" stroke="black" d="M198.5,-219C198.5,-198.64 227.3,-204.17 237.2,-192.71"/>
<polygon fill="black" stroke="black" points="240.6,-193.59 240.5,-183 233.97,-191.35 240.6,-193.59"/>
</g>
<!-- 4438445200 -->
<g id="node4" class="node">
<title>4438445200</title>
<path fill="lightgray" stroke="lightgray" d="M34,-73.5C34,-73.5 73,-73.5 73,-73.5 79,-73.5 85,-79.5 85,-85.5 85,-85.5 85,-97.5 85,-97.5 85,-103.5 79,-109.5 73,-109.5 73,-109.5 34,-109.5 34,-109.5 28,-109.5 22,-103.5 22,-97.5 22,-97.5 22,-85.5 22,-85.5 22,-79.5 28,-73.5 34,-73.5"/>
<text text-anchor="middle" x="32" y="-87.8" font-family="Times,serif" font-size="14.00"> </text>
<polyline fill="none" stroke="lightgray" points="42,-73.5 42,-109.5 "/>
<text text-anchor="middle" x="53.5" y="-87.8" font-family="Times,serif" font-size="14.00">2</text>
<polyline fill="none" stroke="lightgray" points="65,-73.5 65,-109.5 "/>
<text text-anchor="middle" x="75" y="-87.8" font-family="Times,serif" font-size="14.00"> </text>
</g>
<!-- 4437910096&#45;&gt;4438445200 -->
<g id="edge3" class="edge">
<title>4437910096:l&#45;&gt;4438445200:v</title>
<path fill="none" stroke="black" d="M90.5,-146C90.5,-127.18 65.6,-130.45 56.65,-119.57"/>
<polygon fill="black" stroke="black" points="59.96,-118.4 53.5,-110 53.31,-120.59 59.96,-118.4"/>
</g>
<!-- 4438445264 -->
<g id="node5" class="node">
<title>4438445264</title>
<path fill="lightgray" stroke="lightgray" d="M115,-73.5C115,-73.5 154,-73.5 154,-73.5 160,-73.5 166,-79.5 166,-85.5 166,-85.5 166,-97.5 166,-97.5 166,-103.5 160,-109.5 154,-109.5 154,-109.5 115,-109.5 115,-109.5 109,-109.5 103,-103.5 103,-97.5 103,-97.5 103,-85.5 103,-85.5 103,-79.5 109,-73.5 115,-73.5"/>
<text text-anchor="middle" x="113" y="-87.8" font-family="Times,serif" font-size="14.00"> </text>
<polyline fill="none" stroke="lightgray" points="123,-73.5 123,-109.5 "/>
<text text-anchor="middle" x="134.5" y="-87.8" font-family="Times,serif" font-size="14.00">4</text>
<polyline fill="none" stroke="lightgray" points="146,-73.5 146,-109.5 "/>
<text text-anchor="middle" x="156" y="-87.8" font-family="Times,serif" font-size="14.00"> </text>
</g>
<!-- 4437910096&#45;&gt;4438445264 -->
<g id="edge4" class="edge">
<title>4437910096:r&#45;&gt;4438445264:v</title>
<path fill="none" stroke="black" d="M134.5,-146C134.5,-134 134.5,-128.75 134.5,-120.12"/>
<polygon fill="black" stroke="black" points="138,-120 134.5,-110 131,-120 138,-120"/>
</g>
<!-- 4438445072 -->
<g id="node6" class="node">
<title>4438445072</title>
<path fill="lightgray" stroke="lightgray" d="M196,-73.5C196,-73.5 235,-73.5 235,-73.5 241,-73.5 247,-79.5 247,-85.5 247,-85.5 247,-97.5 247,-97.5 247,-103.5 241,-109.5 235,-109.5 235,-109.5 196,-109.5 196,-109.5 190,-109.5 184,-103.5 184,-97.5 184,-97.5 184,-85.5 184,-85.5 184,-79.5 190,-73.5 196,-73.5"/>
<text text-anchor="middle" x="194" y="-87.8" font-family="Times,serif" font-size="14.00"> </text>
<polyline fill="none" stroke="lightgray" points="204,-73.5 204,-109.5 "/>
<text text-anchor="middle" x="215.5" y="-87.8" font-family="Times,serif" font-size="14.00">8</text>
<polyline fill="none" stroke="lightgray" points="227,-73.5 227,-109.5 "/>
<text text-anchor="middle" x="237" y="-87.8" font-family="Times,serif" font-size="14.00"> </text>
</g>
<!-- 4438443856&#45;&gt;4438445072 -->
<g id="edge5" class="edge">
<title>4438443856:l&#45;&gt;4438445072:v</title>
<path fill="none" stroke="black" d="M215.5,-146C215.5,-134 215.5,-128.75 215.5,-120.12"/>
<polygon fill="black" stroke="black" points="219,-120 215.5,-110 212,-120 219,-120"/>
</g>
<!-- 4438445328 -->
<g id="node7" class="node">
<title>4438445328</title>
<path fill="lightgray" stroke="lightgray" d="M277.5,-73.5C277.5,-73.5 323.5,-73.5 323.5,-73.5 329.5,-73.5 335.5,-79.5 335.5,-85.5 335.5,-85.5 335.5,-97.5 335.5,-97.5 335.5,-103.5 329.5,-109.5 323.5,-109.5 323.5,-109.5 277.5,-109.5 277.5,-109.5 271.5,-109.5 265.5,-103.5 265.5,-97.5 265.5,-97.5 265.5,-85.5 265.5,-85.5 265.5,-79.5 271.5,-73.5 277.5,-73.5"/>
<text text-anchor="middle" x="275.5" y="-87.8" font-family="Times,serif" font-size="14.00"> </text>
<polyline fill="none" stroke="lightgray" points="285.5,-73.5 285.5,-109.5 "/>
<text text-anchor="middle" x="300.5" y="-87.8" font-family="Times,serif" font-size="14.00">12</text>
<polyline fill="none" stroke="lightgray" points="315.5,-73.5 315.5,-109.5 "/>
<text text-anchor="middle" x="325.5" y="-87.8" font-family="Times,serif" font-size="14.00"> </text>
</g>
<!-- 4438443856&#45;&gt;4438445328 -->
<g id="edge6" class="edge">
<title>4438443856:r&#45;&gt;4438445328:v</title>
<path fill="none" stroke="black" d="M265.5,-146C265.5,-127.87 288.61,-130.17 297.27,-119.7"/>
<polygon fill="black" stroke="black" points="300.66,-120.59 300.5,-110 294.02,-118.38 300.66,-120.59"/>
</g>
<!-- 4438445392 -->
<g id="node8" class="node">
<title>4438445392</title>
<path fill="lightgray" stroke="lightgray" d="M12,-0.5C12,-0.5 51,-0.5 51,-0.5 57,-0.5 63,-6.5 63,-12.5 63,-12.5 63,-24.5 63,-24.5 63,-30.5 57,-36.5 51,-36.5 51,-36.5 12,-36.5 12,-36.5 6,-36.5 0,-30.5 0,-24.5 0,-24.5 0,-12.5 0,-12.5 0,-6.5 6,-0.5 12,-0.5"/>
<text text-anchor="middle" x="10" y="-14.8" font-family="Times,serif" font-size="14.00"> </text>
<polyline fill="none" stroke="lightgray" points="20,-0.5 20,-36.5 "/>
<text text-anchor="middle" x="31.5" y="-14.8" font-family="Times,serif" font-size="14.00">5</text>
<polyline fill="none" stroke="lightgray" points="43,-0.5 43,-36.5 "/>
<text text-anchor="middle" x="53" y="-14.8" font-family="Times,serif" font-size="14.00"> </text>
</g>
<!-- 4438445200&#45;&gt;4438445392 -->
<g id="edge7" class="edge">
<title>4438445200:l&#45;&gt;4438445392:v</title>
<path fill="none" stroke="black" d="M31.5,-73C31.5,-61 31.5,-55.75 31.5,-47.12"/>
<polygon fill="black" stroke="black" points="35,-47 31.5,-37 28,-47 35,-47"/>
</g>
</g>
</svg>