<?xml version="1.0" encoding="UTF-8" standalone="no"?>
<!DOCTYPE svg PUBLIC "-//W3C//DTD SVG 1.1//EN"
 "http://www.w3.org/Graphics/SVG/1.1/DTD/svg11.dtd">
<!-- Generated by graphviz version 2.50.0 (0)
 -->
<!-- Pages: 1 -->
<svg width="438pt" height="191pt"
 viewBox="0.00 0.00 437.50 191.00" xmlns="http://www.w3.org/2000/svg" xmlns:xlink="http://www.w3.org/1999/xlink">
<g id="graph0" class="graph" transform="scale(1 1) rotate(0) translate(4 187)">
<polygon fill="white" stroke="transparent" points="-4,4 -4,-187 433.5,-187 433.5,4 -4,4"/>
<!-- 4436101392 -->
<g id="node1" class="node">
<title>4436101392</title>
<path fill="lightgray" stroke="lightgray" d="M189.5,-146.5C189.5,-146.5 245.5,-146.5 245.5,-146.5 251.5,-146.5 257.5,-152.5 257.5,-158.5 257.5,-158.5 257.5,-170.5 257.5,-170.5 257.5,-176.5 251.5,-182.5 245.5,-182.5 245.5,-182.5 189.5,-182.5 189.5,-182.5 183.5,-182.5 177.5,-176.5 177.5,-170.5 177.5,-170.5 177.5,-158.5 177.5,-158.5 177.5,-152.5 183.5,-146.5 189.5,-146.5"/>
<text text-anchor="middle" x="187.5" y="-160.8" font-family="Times,serif" font-size="14.00"> </text>
<polyline fill="none" stroke="lightgray" points="197.5,-146.5 197.5,-182.5 "/>
<text text-anchor="middle" x="217.5" y="-160.8" font-family="Times,serif" font-size="14.00">tone</text>
<polyline fill="none" stroke="lightgray" points="237.5,-146.5 237.5,-182.5 "/>
<text text-anchor="middle" x="247.5" y="-160.8" font-family="Times,serif" font-size="14.00"> </text>
</g>
<!-- 4435996496 -->
<g id="node2" class="node">
<title>4435996496</title>
<path fill="lightgray" stroke="lightgray" d="M105,-73.5C105,-73.5 158,-73.5 158,-73.5 164,-73.5 170,-79.5 170,-85.5 170,-85.5 170,-97.5 170,-97.5 170,-103.5 164,-109.5 158,-109.5 158,-109.5 105,-109.5 105,-109.5 99,-109.5 93,-103.5 93,-97.5 93,-97.5 93,-85.5 93,-85.5 93,-79.5 99,-73.5 105,-73.5"/>
<text text-anchor="middle" x="103" y="-87.8" font-family="Times,serif" font-size="14.00"> </text>
<polyline fill="none" stroke="lightgray" points="113,-73.5 113,-109.5 "/>
<text text-anchor="middle" x="131.5" y="-87.8" font-family="Times,serif" font-size="14.00">low</text>
<polyline fill="none" stroke="lightgray" points="150,-73.5 150,-109.5 "/>
<text text-anchor="middle" x="160" y="-87.8" font-family="Times,serif" font-size="14.00"> </text>
</g>
<!-- 4436101392&#45;&gt;4435996496 -->
<g id="edge1" class="edge">
<title>4436101392:l&#45;&gt;4435996496:v</title>
<path fill="none" stroke="black" d="M187.5,-146C187.5,-120.57 146.14,-134.11 134.51,-119.65"/>
<polygon fill="black" stroke="black" points="137.82,-118.5 131.5,-110 131.14,-120.59 137.82,-118.5"/>
</g>
<!-- 4435288720 -->
<g id="node3" class="node">
<title>4435288720</title>
<path fill="lightgray" stroke="lightgray" d="M275,-73.5C275,-73.5 332,-73.5 332,-73.5 338,-73.5 344,-79.5 344,-85.5 344,-85.5 344,-97.5 344,-97.5 344,-103.5 338,-109.5 332,-109.5 332,-109.5 275,-109.5 275,-109.5 269,-109.5 263,-103.5 263,-97.5 263,-97.5 263,-85.5 263,-85.5 263,-79.5 269,-73.5 275,-73.5"/>
<text text-anchor="middle" x="273" y="-87.8" font-family="Times,serif" font-size="14.00"> </text>
<polyline fill="none" stroke="lightgray" points="283,-73.5 283,-109.5 "/>
<text text-anchor="middle" x="303.5" y="-87.8" font-family="Times,serif" font-size="14.00">high</text>
<polyline fill="none" stroke="lightgray" points="324,-73.5 324,-109.5 "/>
<text text-anchor="middle" x="334" y="-87.8" font-family="Times,serif" font-size="14.00"> </text>
</g>
<!-- 4436101392&#45;&gt;4435288720 -->
<g id="edge2" class="edge">
<title>4436101392:r&#45;&gt;4435288720:v</title>
<path fill="none" stroke="black" d="M247.5,-146C247.5,-120.57 288.86,-134.11 300.49,-119.65"/>
<polygon fill="black" stroke="black" points="303.86,-120.59 303.5,-110 297.18,-118.5 303.86,-120.59"/>
</g>
<!-- 4435996112 -->
<g id="node4" class="node">
<title>4435996112</title>
<path fill="lightgray" stroke="lightgray" d="M12,-0.5C12,-0.5 85,-0.5 85,-0.5 91,-0.5 97,-6.5 97,-12.5 97,-12.5 97,-24.5 97,-24.5 97,-30.5 91,-36.5 85,-36.5 85,-36.5 12,-36.5 12,-36.5 6,-36.5 0,-30.5 0,-24.5 0,-24.5 0,-12.5 0,-12.5 0,-6.5 6,-0.5 12,-0.5"/>
<text text-anchor="middle" x="10" y="-14.8" font-family="Times,serif" font-size="14.00"> </text>
<polyline fill="none" stroke="lightgray" points="20,-0.5 20,-36.5 "/>
<text text-anchor="middle" x="48.5" y="-14.8" font-family="Times,serif" font-size="14.00">descent</text>
<polyline fill="none" stroke="lightgray" points="77,-0.5 77,-36.5 "/>
<text text-anchor="middle" x="87" y="-14.8" font-family="Times,serif" font-size="14.00"> </text>
</g>
<!-- 4435996496&#45;&gt;4435996112 -->
<g id="edge3" class="edge">
<title>4435996496:l&#45;&gt;4435996112:v</title>
<path fill="none" stroke="black" d="M102.5,-73C102.5,-48.44 63.34,-60.52 51.72,-46.84"/>
<polygon fill="black" stroke="black" points="54.93,-45.42 48.5,-37 48.28,-47.59 54.93,-45.42"/>
</g>
<!-- 4435996624 -->
<g id="node5" class="node">
<title>4435996624</title>
<path fill="lightgray" stroke="lightgray" d="M127.5,-0.5C127.5,-0.5 193.5,-0.5 193.5,-0.5 199.5,-0.5 205.5,-6.5 205.5,-12.5 205.5,-12.5 205.5,-24.5 205.5,-24.5 205.5,-30.5 199.5,-36.5 193.5,-36.5 193.5,-36.5 127.5,-36.5 127.5,-36.5 121.5,-36.5 115.5,-30.5 115.5,-24.5 115.5,-24.5 115.5,-12.5 115.5,-12.5 115.5,-6.5 121.5,-0.5 127.5,-0.5"/>
<text text-anchor="middle" x="125.5" y="-14.8" font-family="Times,serif" font-size="14.00"> </text>
<polyline fill="none" stroke="lightgray" points="135.5,-0.5 135.5,-36.5 "/>
<text text-anchor="middle" x="160.5" y="-14.8" font-family="Times,serif" font-size="14.00">ascent</text>
<polyline fill="none" stroke="lightgray" points="185.5,-0.5 185.5,-36.5 "/>
<text text-anchor="middle" x="195.5" y="-14.8" font-family="Times,serif" font-size="14.00"> </text>
</g>
<!-- 4435996496&#45;&gt;4435996624 -->
<g id="edge4" class="edge">
<title>4435996496:r&#45;&gt;4435996624:v</title>
<path fill="none" stroke="black" d="M160.5,-73C160.5,-61 160.5,-55.75 160.5,-47.12"/>
<polygon fill="black" stroke="black" points="164,-47 160.5,-37 157,-47 164,-47"/>
</g>
<!-- 4436101584 -->
<g id="node6" class="node">
<title>4436101584</title>
<path fill="lightgray" stroke="lightgray" d="M236,-0.5C236,-0.5 309,-0.5 309,-0.5 315,-0.5 321,-6.5 321,-12.5 321,-12.5 321,-24.5 321,-24.5 321,-30.5 315,-36.5 309,-36.5 309,-36.5 236,-36.5 236,-36.5 230,-36.5 224,-30.5 224,-24.5 224,-24.5 224,-12.5 224,-12.5 224,-6.5 230,-0.5 236,-0.5"/>
<text text-anchor="middle" x="234" y="-14.8" font-family="Times,serif" font-size="14.00"> </text>
<polyline fill="none" stroke="lightgray" points="244,-0.5 244,-36.5 "/>
<text text-anchor="middle" x="272.5" y="-14.8" font-family="Times,serif" font-size="14.00">descent</text>
<polyline fill="none" stroke="lightgray" points="301,-0.5 301,-36.5 "/>
<text text-anchor="middle" x="311" y="-14.8" font-family="Times,serif" font-size="14.00"> </text>
</g>
<!-- 4435288720&#45;&gt;4436101584 -->
<g id="edge5" class="edge">
<title>4435288720:l&#45;&gt;4436101584:v</title>
<path fill="none" stroke="black" d="M272.5,-73C272.5,-61 272.5,-55.75 272.5,-47.12"/>
<polygon fill="black" stroke="black" points="276,-47 272.5,-37 269,-47 276,-47"/>
</g>
<!-- 4436101840 -->
<g id="node7" class="node">
<title>4436101840</title>
<path fill="lightgray" stroke="lightgray" d="M351.5,-0.5C351.5,-0.5 417.5,-0.5 417.5,-0.5 423.5,-0.5 429.5,-6.5 429.5,-12.5 429.5,-12.5 429.5,-24.5 429.5,-24.5 429.5,-30.5 423.5,-36.5 417.5,-36.5 417.5,-36.5 351.5,-36.5 351.5,-36.5 345.5,-36.5 339.5,-30.5 339.5,-24.5 339.5,-24.5 339.5,-12.5 339.5,-12.5 339.5,-6.5 345.5,-0.5 351.5,-0.5"/>
<text text-anchor="middle" x="349.5" y="-14.8" font-family="Times,serif" font-size="14.00"> </text>
<polyline fill="none" stroke="lightgray" points="359.5,-0.5 359.5,-36.5 "/>
<text text-anchor="middle" x="384.5" y="-14.8" font-family="Times,serif" font-size="14.00">ascent</text>
<polyline fill="none" stroke="lightgray" points="409.5,-0.5 409.5,-36.5 "/>
<text text-anchor="middle" x="419.5" y="-14.8" font-family="Times,serif" font-size="14.00"> </text>
</g>
<!-- 4435288720&#45;&gt;4436101840 -->
<g id="edge6" class="edge">
<title>4435288720:r&#45;&gt;4436101840:v</title>
<path fill="none" stroke="black" d="M334.5,-73C334.5,-49.9 370.1,-59.65 381.22,-46.81"/>
<polygon fill="black" stroke="black" points="384.65,-47.59 384.5,-37 378.01,-45.37 384.65,-47.59"/>
</g>
</g>
</svg>