<?xml version="1.0" encoding="UTF-8" standalone="no"?>
<!DOCTYPE svg PUBLIC "-//W3C//DTD SVG 1.1//EN"
 "http://www.w3.org/Graphics/SVG/1.1/DTD/svg11.dtd">
<!-- Generated by graphviz version 2.50.0 (0)
 -->
<!-- Pages: 1 -->
<svg width="192pt" height="118pt"
 viewBox="0.00 0.00 191.50 118.00" xmlns="http://www.w3.org/2000/svg" xmlns:xlink="http://www.w3.org/1999/xlink">
<g id="graph0" class="graph" transform="scale(1 1) rotate(0) translate(4 114)">
<polygon fill="white" stroke="transparent" points="-4,4 -4,-114 187.5,-114 187.5,4 -4,4"/>
<!-- 4406070160 -->
<g id="node1" class="node">
<title>4406070160</title>
<path fill="lightgray" stroke="lightgray" d="M50.5,-73.5C50.5,-73.5 130.5,-73.5 130.5,-73.5 136.5,-73.5 142.5,-79.5 142.5,-85.5 142.5,-85.5 142.5,-97.5 142.5,-97.5 142.5,-103.5 136.5,-109.5 130.5,-109.5 130.5,-109.5 50.5,-109.5 50.5,-109.5 44.5,-109.5 38.5,-103.5 38.5,-97.5 38.5,-97.5 38.5,-85.5 38.5,-85.5 38.5,-79.5 44.5,-73.5 50.5,-73.5"/>
<text text-anchor="middle" x="48.5" y="-87.8" font-family="Times,serif" font-size="14.00"> </text>
<polyline fill="none" stroke="lightgray" points="58.5,-73.5 58.5,-109.5 "/>
<text text-anchor="middle" x="90.5" y="-87.8" font-family="Times,serif" font-size="14.00">Elevated</text>
<polyline fill="none" stroke="lightgray" points="122.5,-73.5 122.5,-109.5 "/>
<text text-anchor="middle" x="132.5" y="-87.8" font-family="Times,serif" font-size="14.00"> </text>
</g>
<!-- 4406069712 -->
<g id="node2" class="node">
<title>4406069712</title>
<path fill="lightgray" stroke="lightgray" d="M12,-0.5C12,-0.5 69,-0.5 69,-0.5 75,-0.5 81,-6.5 81,-12.5 81,-12.5 81,-24.5 81,-24.5 81,-30.5 75,-36.5 69,-36.5 69,-36.5 12,-36.5 12,-36.5 6,-36.5 0,-30.5 0,-24.5 0,-24.5 0,-12.5 0,-12.5 0,-6.5 6,-0.5 12,-0.5"/>
<text text-anchor="middle" x="10" y="-14.8" font-family="Times,serif" font-size="14.00"> </text>
<polyline fill="none" stroke="lightgray" points="20,-0.5 20,-36.5 "/>
<text text-anchor="middle" x="40.5" y="-14.8" font-family="Times,serif" font-size="14.00">Low</text>
<polyline fill="none" stroke="lightgray" points="61,-0.5 61,-36.5 "/>
<text text-anchor="middle" x="71" y="-14.8" font-family="Times,serif" font-size="14.00"> </text>
</g>
<!-- 4406070160&#45;&gt;4406069712 -->
<g id="edge1" class="edge">
<title>4406070160:l&#45;&gt;4406069712:v</title>
<path fill="none" stroke="black" d="M48.5,-73C48.5,-60.58 43.91,-55.72 41.68,-46.97"/>
<polygon fill="black" stroke="black" points="45.15,-46.52 40.5,-37 38.2,-47.34 45.15,-46.52"/>
</g>
<!-- 4406070224 -->
<g id="node3" class="node">
<title>4406070224</title>
<path fill="lightgray" stroke="lightgray" d="M111.5,-0.5C111.5,-0.5 171.5,-0.5 171.5,-0.5 177.5,-0.5 183.5,-6.5 183.5,-12.5 183.5,-12.5 183.5,-24.5 183.5,-24.5 183.5,-30.5 177.5,-36.5 171.5,-36.5 171.5,-36.5 111.5,-36.5 111.5,-36.5 105.5,-36.5 99.5,-30.5 99.5,-24.5 99.5,-24.5 99.5,-12.5 99.5,-12.5 99.5,-6.5 105.5,-0.5 111.5,-0.5"/>
<text text-anchor="middle" x="109.5" y="-14.8" font-family="Times,serif" font-size="14.00"> </text>
<polyline fill="none" stroke="lightgray" points="119.5,-0.5 119.5,-36.5 "/>
<text text-anchor="middle" x="141.5" y="-14.8" font-family="Times,serif" font-size="14.00">High</text>
<polyline fill="none" stroke="lightgray" points="163.5,-0.5 163.5,-36.5 "/>
<text text-anchor="middle" x="173.5" y="-14.8" font-family="Times,serif" font-size="14.00"> </text>
</g>
<!-- 4406070160&#45;&gt;4406070224 -->
<g id="edge2" class="edge">
<title>4406070160:r&#45;&gt;4406070224:v</title>
<path fill="none" stroke="black" d="M132.5,-73C132.5,-60.5 137.67,-55.74 140.17,-46.99"/>
<polygon fill="black" stroke="black" points="143.65,-47.37 141.5,-37 136.71,-46.45 143.65,-47.37"/>
</g>
</g>
</svg>