<?xml version="1.0" encoding="UTF-8" standalone="no"?>
<!DOCTYPE svg PUBLIC "-//W3C//DTD SVG 1.1//EN"
 "http://www.w3.org/Graphics/SVG/1.1/DTD/svg11.dtd">
<!-- Generated by graphviz version 2.50.0 (0)
 -->
<!-- Pages: 1 -->
<svg width="214pt" height="118pt"
 viewBox="0.00 0.00 213.50 118.00" xmlns="http://www.w3.org/2000/svg" xmlns:xlink="http://www.w3.org/1999/xlink">
<g id="graph0" class="graph" transform="scale(1 1) rotate(0) translate(4 114)">
<polygon fill="white" stroke="transparent" points="-4,4 -4,-114 209.5,-114 209.5,4 -4,4"/>
<!-- 4356851984 -->
<g id="node1" class="node">
<title>4356851984</title>
<path fill="lightgray" stroke="lightgray" d="M62,-73.5C62,-73.5 147,-73.5 147,-73.5 153,-73.5 159,-79.5 159,-85.5 159,-85.5 159,-97.5 159,-97.5 159,-103.5 153,-109.5 147,-109.5 147,-109.5 62,-109.5 62,-109.5 56,-109.5 50,-103.5 50,-97.5 50,-97.5 50,-85.5 50,-85.5 50,-79.5 56,-73.5 62,-73.5"/>
<text text-anchor="middle" x="60" y="-87.8" font-family="Times,serif" font-size="14.00"> </text>
<polyline fill="none" stroke="lightgray" points="70,-73.5 70,-109.5 "/>
<text text-anchor="middle" x="104.5" y="-87.8" font-family="Times,serif" font-size="14.00">elongated</text>
<polyline fill="none" stroke="lightgray" points="139,-73.5 139,-109.5 "/>
<text text-anchor="middle" x="149" y="-87.8" font-family="Times,serif" font-size="14.00"> </text>
</g>
<!-- 4356854096 -->
<g id="node2" class="node">
<title>4356854096</title>
<path fill="lightgray" stroke="lightgray" d="M12,-0.5C12,-0.5 85,-0.5 85,-0.5 91,-0.5 97,-6.5 97,-12.5 97,-12.5 97,-24.5 97,-24.5 97,-30.5 91,-36.5 85,-36.5 85,-36.5 12,-36.5 12,-36.5 6,-36.5 0,-30.5 0,-24.5 0,-24.5 0,-12.5 0,-12.5 0,-6.5 6,-0.5 12,-0.5"/>
<text text-anchor="middle" x="10" y="-14.8" font-family="Times,serif" font-size="14.00"> </text>
<polyline fill="none" stroke="lightgray" points="20,-0.5 20,-36.5 "/>
<text text-anchor="middle" x="48.5" y="-14.8" font-family="Times,serif" font-size="14.00">descent</text>
<polyline fill="none" stroke="lightgray" points="77,-0.5 77,-36.5 "/>
<text text-anchor="middle" x="87" y="-14.8" font-family="Times,serif" font-size="14.00"> </text>
</g>
<!-- 4356851984&#45;&gt;4356854096 -->
<g id="edge1" class="edge">
<title>4356851984:l&#45;&gt;4356854096:v</title>
<path fill="none" stroke="black" d="M59.5,-73C59.5,-60.32 53.18,-55.79 50.12,-47.06"/>
<polygon fill="black" stroke="black" points="53.55,-46.31 48.5,-37 46.64,-47.43 53.55,-46.31"/>
</g>
<!-- 4356854032 -->
<g id="node3" class="node">
<title>4356854032</title>
<path fill="lightgray" stroke="lightgray" d="M127.5,-0.5C127.5,-0.5 193.5,-0.5 193.5,-0.5 199.5,-0.5 205.5,-6.5 205.5,-12.5 205.5,-12.5 205.5,-24.5 205.5,-24.5 205.5,-30.5 199.5,-36.5 193.5,-36.5 193.5,-36.5 127.5,-36.5 127.5,-36.5 121.5,-36.5 115.5,-30.5 115.5,-24.5 115.5,-24.5 115.5,-12.5 115.5,-12.5 115.5,-6.5 121.5,-0.5 127.5,-0.5"/>
<text text-anchor="middle" x="125.5" y="-14.8" font-family="Times,serif" font-size="14.00"> </text>
<polyline fill="none" stroke="lightgray" points="135.5,-0.5 135.5,-36.5 "/>
<text text-anchor="middle" x="160.5" y="-14.8" font-family="Times,serif" font-size="14.00">ascent</text>
<polyline fill="none" stroke="lightgray" points="185.5,-0.5 185.5,-36.5 "/>
<text text-anchor="middle" x="195.5" y="-14.8" font-family="Times,serif" font-size="14.00"> </text>
</g>
<!-- 4356851984&#45;&gt;4356854032 -->
<g id="edge2" class="edge">
<title>4356851984:r&#45;&gt;4356854032:v</title>
<path fill="none" stroke="black" d="M149.5,-73C149.5,-60.32 155.82,-55.79 158.88,-47.06"/>
<polygon fill="black" stroke="black" points="162.36,-47.43 160.5,-37 155.45,-46.31 162.36,-47.43"/>
</g>
</g>
</svg>