<?xml version="1.0" encoding="UTF-8" standalone="no"?>
<!DOCTYPE svg PUBLIC "-//W3C//DTD SVG 1.1//EN"
 "http://www.w3.org/Graphics/SVG/1.1/DTD/svg11.dtd">
<!-- Generated by graphviz version 2.49.0 (0)
 -->
<!-- Pages: 1 -->
<svg width="194pt" height="118pt"
 viewBox="0.00 0.00 194.00 118.00" xmlns="http://www.w3.org/2000/svg" xmlns:xlink="http://www.w3.org/1999/xlink">
<g id="graph0" class="graph" transform="scale(1 1) rotate(0) translate(4 114)">
<polygon fill="white" stroke="transparent" points="-4,4 -4,-114 190,-114 190,4 -4,4"/>
<!-- 4429237136 -->
<g id="node1" class="node">
<title>4429237136</title>
<path fill="lightgray" stroke="lightgray" d="M58.5,-73.5C58.5,-73.5 127.5,-73.5 127.5,-73.5 133.5,-73.5 139.5,-79.5 139.5,-85.5 139.5,-85.5 139.5,-97.5 139.5,-97.5 139.5,-103.5 133.5,-109.5 127.5,-109.5 127.5,-109.5 58.5,-109.5 58.5,-109.5 52.5,-109.5 46.5,-103.5 46.5,-97.5 46.5,-97.5 46.5,-85.5 46.5,-85.5 46.5,-79.5 52.5,-73.5 58.5,-73.5"/>
<text text-anchor="middle" x="56.5" y="-87.8" font-family="Times,serif" font-size="14.00"> </text>
<polyline fill="none" stroke="lightgray" points="66.5,-73.5 66.5,-109.5 "/>
<text text-anchor="middle" x="93" y="-87.8" font-family="Times,serif" font-size="14.00">Nature</text>
<polyline fill="none" stroke="lightgray" points="119.5,-73.5 119.5,-109.5 "/>
<text text-anchor="middle" x="129.5" y="-87.8" font-family="Times,serif" font-size="14.00"> </text>
</g>
<!-- 4429240848 -->
<g id="node2" class="node">
<title>4429240848</title>
<path fill="lightgray" stroke="lightgray" d="M12,-0.5C12,-0.5 72,-0.5 72,-0.5 78,-0.5 84,-6.5 84,-12.5 84,-12.5 84,-24.5 84,-24.5 84,-30.5 78,-36.5 72,-36.5 72,-36.5 12,-36.5 12,-36.5 6,-36.5 0,-30.5 0,-24.5 0,-24.5 0,-12.5 0,-12.5 0,-6.5 6,-0.5 12,-0.5"/>
<text text-anchor="middle" x="10" y="-14.8" font-family="Times,serif" font-size="14.00"> </text>
<polyline fill="none" stroke="lightgray" points="20,-0.5 20,-36.5 "/>
<text text-anchor="middle" x="42" y="-14.8" font-family="Times,serif" font-size="14.00">earth</text>
<polyline fill="none" stroke="lightgray" points="64,-0.5 64,-36.5 "/>
<text text-anchor="middle" x="74" y="-14.8" font-family="Times,serif" font-size="14.00"> </text>
</g>
<!-- 4429237136&#45;&gt;4429240848 -->
<g id="edge1" class="edge">
<title>4429237136:l&#45;&gt;4429240848:v</title>
<path fill="none" stroke="black" d="M56,-73C56,-59.86 47.79,-55.8 43.95,-46.92"/>
<polygon fill="black" stroke="black" points="47.36,-46.14 42,-37 40.49,-47.49 47.36,-46.14"/>
</g>
<!-- 4429330128 -->
<g id="node3" class="node">
<title>4429330128</title>
<path fill="lightgray" stroke="lightgray" d="M114,-0.5C114,-0.5 174,-0.5 174,-0.5 180,-0.5 186,-6.5 186,-12.5 186,-12.5 186,-24.5 186,-24.5 186,-30.5 180,-36.5 174,-36.5 174,-36.5 114,-36.5 114,-36.5 108,-36.5 102,-30.5 102,-24.5 102,-24.5 102,-12.5 102,-12.5 102,-6.5 108,-0.5 114,-0.5"/>
<text text-anchor="middle" x="112" y="-14.8" font-family="Times,serif" font-size="14.00"> </text>
<polyline fill="none" stroke="lightgray" points="122,-0.5 122,-36.5 "/>
<text text-anchor="middle" x="144" y="-14.8" font-family="Times,serif" font-size="14.00">wind</text>
<polyline fill="none" stroke="lightgray" points="166,-0.5 166,-36.5 "/>
<text text-anchor="middle" x="176" y="-14.8" font-family="Times,serif" font-size="14.00"> </text>
</g>
<!-- 4429237136&#45;&gt;4429330128 -->
<g id="edge2" class="edge">
<title>4429237136:r&#45;&gt;4429330128:v</title>
<path fill="none" stroke="black" d="M130,-73C130,-59.86 138.21,-55.8 142.05,-46.92"/>
<polygon fill="black" stroke="black" points="145.51,-47.49 144,-37 138.64,-46.14 145.51,-47.49"/>
</g>
</g>
</svg>