<?xml version="1.0" encoding="UTF-8" standalone="no"?>
<!DOCTYPE svg PUBLIC "-//W3C//DTD SVG 1.1//EN"
 "http://www.w3.org/Graphics/SVG/1.1/DTD/svg11.dtd">
<!-- Generated by graphviz version 2.49.0 (0)
 -->
<!-- Pages: 1 -->
<svg width="662pt" height="264pt"
 viewBox="0.00 0.00 662.00 264.00" xmlns="http://www.w3.org/2000/svg" xmlns:xlink="http://www.w3.org/1999/xlink">
<g id="graph0" class="graph" transform="scale(1 1) rotate(0) translate(4 260)">
<polygon fill="white" stroke="transparent" points="-4,4 -4,-260 658,-260 658,4 -4,4"/>
<!-- 4399370320 -->
<g id="node1" class="node">
<title>4399370320</title>
<path fill="lightgray" stroke="lightgray" d="M258.5,-219.5C258.5,-219.5 321.5,-219.5 321.5,-219.5 327.5,-219.5 333.5,-225.5 333.5,-231.5 333.5,-231.5 333.5,-243.5 333.5,-243.5 333.5,-249.5 327.5,-255.5 321.5,-255.5 321.5,-255.5 258.5,-255.5 258.5,-255.5 252.5,-255.5 246.5,-249.5 246.5,-243.5 246.5,-243.5 246.5,-231.5 246.5,-231.5 246.5,-225.5 252.5,-219.5 258.5,-219.5"/>
<text text-anchor="middle" x="256.5" y="-233.8" font-family="Times,serif" font-size="14.00"> </text>
<polyline fill="none" stroke="lightgray" points="266.5,-219.5 266.5,-255.5 "/>
<text text-anchor="middle" x="290" y="-233.8" font-family="Times,serif" font-size="14.00">Word</text>
<polyline fill="none" stroke="lightgray" points="313.5,-219.5 313.5,-255.5 "/>
<text text-anchor="middle" x="323.5" y="-233.8" font-family="Times,serif" font-size="14.00"> </text>
</g>
<!-- 4401911632 -->
<g id="node2" class="node">
<title>4401911632</title>
<path fill="lightgray" stroke="lightgray" d="M154,-146.5C154,-146.5 232,-146.5 232,-146.5 238,-146.5 244,-152.5 244,-158.5 244,-158.5 244,-170.5 244,-170.5 244,-176.5 238,-182.5 232,-182.5 232,-182.5 154,-182.5 154,-182.5 148,-182.5 142,-176.5 142,-170.5 142,-170.5 142,-158.5 142,-158.5 142,-152.5 148,-146.5 154,-146.5"/>
<text text-anchor="middle" x="152" y="-160.8" font-family="Times,serif" font-size="14.00"> </text>
<polyline fill="none" stroke="lightgray" points="162,-146.5 162,-182.5 "/>
<text text-anchor="middle" x="193" y="-160.8" font-family="Times,serif" font-size="14.00">attribute</text>
<polyline fill="none" stroke="lightgray" points="224,-146.5 224,-182.5 "/>
<text text-anchor="middle" x="234" y="-160.8" font-family="Times,serif" font-size="14.00"> </text>
</g>
<!-- 4399370320&#45;&gt;4401911632 -->
<g id="edge1" class="edge">
<title>4399370320:l&#45;&gt;4401911632:v</title>
<path fill="none" stroke="black" d="M256,-219C256,-191.03 208.62,-208.75 196.04,-192.92"/>
<polygon fill="black" stroke="black" points="199.28,-191.54 193,-183 192.58,-193.59 199.28,-191.54"/>
</g>
<!-- 4401997584 -->
<g id="node3" class="node">
<title>4401997584</title>
<path fill="lightgray" stroke="lightgray" d="M348,-146.5C348,-146.5 426,-146.5 426,-146.5 432,-146.5 438,-152.5 438,-158.5 438,-158.5 438,-170.5 438,-170.5 438,-176.5 432,-182.5 426,-182.5 426,-182.5 348,-182.5 348,-182.5 342,-182.5 336,-176.5 336,-170.5 336,-170.5 336,-158.5 336,-158.5 336,-152.5 342,-146.5 348,-146.5"/>
<text text-anchor="middle" x="346" y="-160.8" font-family="Times,serif" font-size="14.00"> </text>
<polyline fill="none" stroke="lightgray" points="356,-146.5 356,-182.5 "/>
<text text-anchor="middle" x="387" y="-160.8" font-family="Times,serif" font-size="14.00">attribute</text>
<polyline fill="none" stroke="lightgray" points="418,-146.5 418,-182.5 "/>
<text text-anchor="middle" x="428" y="-160.8" font-family="Times,serif" font-size="14.00"> </text>
</g>
<!-- 4399370320&#45;&gt;4401997584 -->
<g id="edge2" class="edge">
<title>4399370320:r&#45;&gt;4401997584:v</title>
<path fill="none" stroke="black" d="M324,-219C324,-191.03 371.38,-208.75 383.96,-192.92"/>
<polygon fill="black" stroke="black" points="387.42,-193.59 387,-183 380.72,-191.54 387.42,-193.59"/>
</g>
<!-- 4401999760 -->
<g id="node4" class="node">
<title>4401999760</title>
<path fill="lightgray" stroke="lightgray" d="M87,-73.5C87,-73.5 157,-73.5 157,-73.5 163,-73.5 169,-79.5 169,-85.5 169,-85.5 169,-97.5 169,-97.5 169,-103.5 163,-109.5 157,-109.5 157,-109.5 87,-109.5 87,-109.5 81,-109.5 75,-103.5 75,-97.5 75,-97.5 75,-85.5 75,-85.5 75,-79.5 81,-73.5 87,-73.5"/>
<text text-anchor="middle" x="85" y="-87.8" font-family="Times,serif" font-size="14.00"> </text>
<polyline fill="none" stroke="lightgray" points="95,-73.5 95,-109.5 "/>
<text text-anchor="middle" x="122" y="-87.8" font-family="Times,serif" font-size="14.00">quality</text>
<polyline fill="none" stroke="lightgray" points="149,-73.5 149,-109.5 "/>
<text text-anchor="middle" x="159" y="-87.8" font-family="Times,serif" font-size="14.00"> </text>
</g>
<!-- 4401911632&#45;&gt;4401999760 -->
<g id="edge3" class="edge">
<title>4401911632:l&#45;&gt;4401999760:v</title>
<path fill="none" stroke="black" d="M152,-146C152,-129.24 132.57,-129.63 124.99,-119.57"/>
<polygon fill="black" stroke="black" points="128.32,-118.5 122,-110 121.64,-120.59 128.32,-118.5"/>
</g>
<!-- 4402029712 -->
<g id="node5" class="node">
<title>4402029712</title>
<path fill="lightgray" stroke="lightgray" d="M199,-73.5C199,-73.5 269,-73.5 269,-73.5 275,-73.5 281,-79.5 281,-85.5 281,-85.5 281,-97.5 281,-97.5 281,-103.5 275,-109.5 269,-109.5 269,-109.5 199,-109.5 199,-109.5 193,-109.5 187,-103.5 187,-97.5 187,-97.5 187,-85.5 187,-85.5 187,-79.5 193,-73.5 199,-73.5"/>
<text text-anchor="middle" x="197" y="-87.8" font-family="Times,serif" font-size="14.00"> </text>
<polyline fill="none" stroke="lightgray" points="207,-73.5 207,-109.5 "/>
<text text-anchor="middle" x="234" y="-87.8" font-family="Times,serif" font-size="14.00">quality</text>
<polyline fill="none" stroke="lightgray" points="261,-73.5 261,-109.5 "/>
<text text-anchor="middle" x="271" y="-87.8" font-family="Times,serif" font-size="14.00"> </text>
</g>
<!-- 4401911632&#45;&gt;4402029712 -->
<g id="edge4" class="edge">
<title>4401911632:r&#45;&gt;4402029712:v</title>
<path fill="none" stroke="black" d="M234,-146C234,-134 234,-128.75 234,-120.12"/>
<polygon fill="black" stroke="black" points="237.5,-120 234,-110 230.5,-120 237.5,-120"/>
</g>
<!-- 4402029648 -->
<g id="node6" class="node">
<title>4402029648</title>
<path fill="lightgray" stroke="lightgray" d="M311,-73.5C311,-73.5 381,-73.5 381,-73.5 387,-73.5 393,-79.5 393,-85.5 393,-85.5 393,-97.5 393,-97.5 393,-103.5 387,-109.5 381,-109.5 381,-109.5 311,-109.5 311,-109.5 305,-109.5 299,-103.5 299,-97.5 299,-97.5 299,-85.5 299,-85.5 299,-79.5 305,-73.5 311,-73.5"/>
<text text-anchor="middle" x="309" y="-87.8" font-family="Times,serif" font-size="14.00"> </text>
<polyline fill="none" stroke="lightgray" points="319,-73.5 319,-109.5 "/>
<text text-anchor="middle" x="346" y="-87.8" font-family="Times,serif" font-size="14.00">quality</text>
<polyline fill="none" stroke="lightgray" points="373,-73.5 373,-109.5 "/>
<text text-anchor="middle" x="383" y="-87.8" font-family="Times,serif" font-size="14.00"> </text>
</g>
<!-- 4401997584&#45;&gt;4402029648 -->
<g id="edge5" class="edge">
<title>4401997584:l&#45;&gt;4402029648:v</title>
<path fill="none" stroke="black" d="M346,-146C346,-134 346,-128.75 346,-120.12"/>
<polygon fill="black" stroke="black" points="349.5,-120 346,-110 342.5,-120 349.5,-120"/>
</g>
<!-- 4402000272 -->
<g id="node7" class="node">
<title>4402000272</title>
<path fill="lightgray" stroke="lightgray" d="M497,-73.5C497,-73.5 567,-73.5 567,-73.5 573,-73.5 579,-79.5 579,-85.5 579,-85.5 579,-97.5 579,-97.5 579,-103.5 573,-109.5 567,-109.5 567,-109.5 497,-109.5 497,-109.5 491,-109.5 485,-103.5 485,-97.5 485,-97.5 485,-85.5 485,-85.5 485,-79.5 491,-73.5 497,-73.5"/>
<text text-anchor="middle" x="495" y="-87.8" font-family="Times,serif" font-size="14.00"> </text>
<polyline fill="none" stroke="lightgray" points="505,-73.5 505,-109.5 "/>
<text text-anchor="middle" x="532" y="-87.8" font-family="Times,serif" font-size="14.00">quality</text>
<polyline fill="none" stroke="lightgray" points="559,-73.5 559,-109.5 "/>
<text text-anchor="middle" x="569" y="-87.8" font-family="Times,serif" font-size="14.00"> </text>
</g>
<!-- 4401997584&#45;&gt;4402000272 -->
<g id="edge6" class="edge">
<title>4401997584:r&#45;&gt;4402000272:v</title>
<path fill="none" stroke="black" d="M428,-146C428,-101.1 515.64,-149.51 530.02,-119.92"/>
<polygon fill="black" stroke="black" points="533.47,-120.49 532,-110 526.61,-119.12 533.47,-120.49"/>
</g>
<!-- 4402369168 -->
<g id="node8" class="node">
<title>4402369168</title>
<path fill="lightgray" stroke="lightgray" d="M12,-0.5C12,-0.5 82,-0.5 82,-0.5 88,-0.5 94,-6.5 94,-12.5 94,-12.5 94,-24.5 94,-24.5 94,-30.5 88,-36.5 82,-36.5 82,-36.5 12,-36.5 12,-36.5 6,-36.5 0,-30.5 0,-24.5 0,-24.5 0,-12.5 0,-12.5 0,-6.5 6,-0.5 12,-0.5"/>
<text text-anchor="middle" x="10" y="-14.8" font-family="Times,serif" font-size="14.00"> </text>
<polyline fill="none" stroke="lightgray" points="20,-0.5 20,-36.5 "/>
<text text-anchor="middle" x="47" y="-14.8" font-family="Times,serif" font-size="14.00">feature</text>
<polyline fill="none" stroke="lightgray" points="74,-0.5 74,-36.5 "/>
<text text-anchor="middle" x="84" y="-14.8" font-family="Times,serif" font-size="14.00"> </text>
</g>
<!-- 4401999760&#45;&gt;4402369168 -->
<g id="edge7" class="edge">
<title>4401999760:l&#45;&gt;4402369168:v</title>
<path fill="none" stroke="black" d="M85,-73C85,-53.92 59.43,-57.57 50.24,-46.66"/>
<polygon fill="black" stroke="black" points="53.5,-45.37 47,-37 46.86,-47.59 53.5,-45.37"/>
</g>
<!-- 4402370000 -->
<g id="node9" class="node">
<title>4402370000</title>
<path fill="lightgray" stroke="lightgray" d="M124,-0.5C124,-0.5 194,-0.5 194,-0.5 200,-0.5 206,-6.5 206,-12.5 206,-12.5 206,-24.5 206,-24.5 206,-30.5 200,-36.5 194,-36.5 194,-36.5 124,-36.5 124,-36.5 118,-36.5 112,-30.5 112,-24.5 112,-24.5 112,-12.5 112,-12.5 112,-6.5 118,-0.5 124,-0.5"/>
<text text-anchor="middle" x="122" y="-14.8" font-family="Times,serif" font-size="14.00"> </text>
<polyline fill="none" stroke="lightgray" points="132,-0.5 132,-36.5 "/>
<text text-anchor="middle" x="159" y="-14.8" font-family="Times,serif" font-size="14.00">feature</text>
<polyline fill="none" stroke="lightgray" points="186,-0.5 186,-36.5 "/>
<text text-anchor="middle" x="196" y="-14.8" font-family="Times,serif" font-size="14.00"> </text>
</g>
<!-- 4401999760&#45;&gt;4402370000 -->
<g id="edge8" class="edge">
<title>4401999760:r&#45;&gt;4402370000:v</title>
<path fill="none" stroke="black" d="M159,-73C159,-61 159,-55.75 159,-47.12"/>
<polygon fill="black" stroke="black" points="162.5,-47 159,-37 155.5,-47 162.5,-47"/>
</g>
<!-- 4402000784 -->
<g id="node10" class="node">
<title>4402000784</title>
<path fill="lightgray" stroke="lightgray" d="M236,-0.5C236,-0.5 306,-0.5 306,-0.5 312,-0.5 318,-6.5 318,-12.5 318,-12.5 318,-24.5 318,-24.5 318,-30.5 312,-36.5 306,-36.5 306,-36.5 236,-36.5 236,-36.5 230,-36.5 224,-30.5 224,-24.5 224,-24.5 224,-12.5 224,-12.5 224,-6.5 230,-0.5 236,-0.5"/>
<text text-anchor="middle" x="234" y="-14.8" font-family="Times,serif" font-size="14.00"> </text>
<polyline fill="none" stroke="lightgray" points="244,-0.5 244,-36.5 "/>
<text text-anchor="middle" x="271" y="-14.8" font-family="Times,serif" font-size="14.00">feature</text>
<polyline fill="none" stroke="lightgray" points="298,-0.5 298,-36.5 "/>
<text text-anchor="middle" x="308" y="-14.8" font-family="Times,serif" font-size="14.00"> </text>
</g>
<!-- 4402029648&#45;&gt;4402000784 -->
<g id="edge9" class="edge">
<title>4402029648:l&#45;&gt;4402000784:v</title>
<path fill="none" stroke="black" d="M309,-73C309,-53.92 283.43,-57.57 274.24,-46.66"/>
<polygon fill="black" stroke="black" points="277.5,-45.37 271,-37 270.86,-47.59 277.5,-45.37"/>
</g>
<!-- 4402368400 -->
<g id="node11" class="node">
<title>4402368400</title>
<path fill="lightgray" stroke="lightgray" d="M348,-0.5C348,-0.5 418,-0.5 418,-0.5 424,-0.5 430,-6.5 430,-12.5 430,-12.5 430,-24.5 430,-24.5 430,-30.5 424,-36.5 418,-36.5 418,-36.5 348,-36.5 348,-36.5 342,-36.5 336,-30.5 336,-24.5 336,-24.5 336,-12.5 336,-12.5 336,-6.5 342,-0.5 348,-0.5"/>
<text text-anchor="middle" x="346" y="-14.8" font-family="Times,serif" font-size="14.00"> </text>
<polyline fill="none" stroke="lightgray" points="356,-0.5 356,-36.5 "/>
<text text-anchor="middle" x="383" y="-14.8" font-family="Times,serif" font-size="14.00">feature</text>
<polyline fill="none" stroke="lightgray" points="410,-0.5 410,-36.5 "/>
<text text-anchor="middle" x="420" y="-14.8" font-family="Times,serif" font-size="14.00"> </text>
</g>
<!-- 4402029648&#45;&gt;4402368400 -->
<g id="edge10" class="edge">
<title>4402029648:r&#45;&gt;4402368400:v</title>
<path fill="none" stroke="black" d="M383,-73C383,-61 383,-55.75 383,-47.12"/>
<polygon fill="black" stroke="black" points="386.5,-47 383,-37 379.5,-47 386.5,-47"/>
</g>
<!-- 4402367696 -->
<g id="node12" class="node">
<title>4402367696</title>
<path fill="lightgray" stroke="lightgray" d="M460,-0.5C460,-0.5 530,-0.5 530,-0.5 536,-0.5 542,-6.5 542,-12.5 542,-12.5 542,-24.5 542,-24.5 542,-30.5 536,-36.5 530,-36.5 530,-36.5 460,-36.5 460,-36.5 454,-36.5 448,-30.5 448,-24.5 448,-24.5 448,-12.5 448,-12.5 448,-6.5 454,-0.5 460,-0.5"/>
<text text-anchor="middle" x="458" y="-14.8" font-family="Times,serif" font-size="14.00"> </text>
<polyline fill="none" stroke="lightgray" points="468,-0.5 468,-36.5 "/>
<text text-anchor="middle" x="495" y="-14.8" font-family="Times,serif" font-size="14.00">feature</text>
<polyline fill="none" stroke="lightgray" points="522,-0.5 522,-36.5 "/>
<text text-anchor="middle" x="532" y="-14.8" font-family="Times,serif" font-size="14.00"> </text>
</g>
<!-- 4402000272&#45;&gt;4402367696 -->
<g id="edge11" class="edge">
<title>4402000272:l&#45;&gt;4402367696:v</title>
<path fill="none" stroke="black" d="M495,-73C495,-61 495,-55.75 495,-47.12"/>
<polygon fill="black" stroke="black" points="498.5,-47 495,-37 491.5,-47 498.5,-47"/>
</g>
<!-- 4402368464 -->
<g id="node13" class="node">
<title>4402368464</title>
<path fill="lightgray" stroke="lightgray" d="M572,-0.5C572,-0.5 642,-0.5 642,-0.5 648,-0.5 654,-6.5 654,-12.5 654,-12.5 654,-24.5 654,-24.5 654,-30.5 648,-36.5 642,-36.5 642,-36.5 572,-36.5 572,-36.5 566,-36.5 560,-30.5 560,-24.5 560,-24.5 560,-12.5 560,-12.5 560,-6.5 566,-0.5 572,-0.5"/>
<text text-anchor="middle" x="570" y="-14.8" font-family="Times,serif" font-size="14.00"> </text>
<polyline fill="none" stroke="lightgray" points="580,-0.5 580,-36.5 "/>
<text text-anchor="middle" x="607" y="-14.8" font-family="Times,serif" font-size="14.00">feature</text>
<polyline fill="none" stroke="lightgray" points="634,-0.5 634,-36.5 "/>
<text text-anchor="middle" x="644" y="-14.8" font-family="Times,serif" font-size="14.00"> </text>
</g>
<!-- 4402000272&#45;&gt;4402368464 -->
<g id="edge12" class="edge">
<title>4402000272:r&#45;&gt;4402368464:v</title>
<path fill="none" stroke="black" d="M569,-73C569,-53.92 594.57,-57.57 603.76,-46.66"/>
<polygon fill="black" stroke="black" points="607.14,-47.59 607,-37 600.5,-45.37 607.14,-47.59"/>
</g>
</g>
</svg>