<?xml version="1.0" encoding="UTF-8" standalone="no"?>
<!DOCTYPE svg PUBLIC "-//W3C//DTD SVG 1.1//EN"
 "http://www.w3.org/Graphics/SVG/1.1/DTD/svg11.dtd">
<!-- Generated by graphviz version 2.49.0 (0)
 -->
<!-- Pages: 1 -->
<svg width="314pt" height="264pt"
 viewBox="0.00 0.00 314.00 264.00" xmlns="http://www.w3.org/2000/svg" xmlns:xlink="http://www.w3.org/1999/xlink">
<g id="graph0" class="graph" transform="scale(1 1) rotate(0) translate(4 260)">
<polygon fill="white" stroke="transparent" points="-4,4 -4,-260 310,-260 310,4 -4,4"/>
<!-- 4374726032 -->
<g id="node1" class="node">
<title>4374726032</title>
<path fill="lightgray" stroke="lightgray" d="M151.5,-219.5C151.5,-219.5 197.5,-219.5 197.5,-219.5 203.5,-219.5 209.5,-225.5 209.5,-231.5 209.5,-231.5 209.5,-243.5 209.5,-243.5 209.5,-249.5 203.5,-255.5 197.5,-255.5 197.5,-255.5 151.5,-255.5 151.5,-255.5 145.5,-255.5 139.5,-249.5 139.5,-243.5 139.5,-243.5 139.5,-231.5 139.5,-231.5 139.5,-225.5 145.5,-219.5 151.5,-219.5"/>
<text text-anchor="middle" x="149.5" y="-233.8" font-family="Times,serif" font-size="14.00"> </text>
<polyline fill="none" stroke="lightgray" points="159.5,-219.5 159.5,-255.5 "/>
<text text-anchor="middle" x="174.5" y="-233.8" font-family="Times,serif" font-size="14.00">12</text>
<polyline fill="none" stroke="lightgray" points="189.5,-219.5 189.5,-255.5 "/>
<text text-anchor="middle" x="199.5" y="-233.8" font-family="Times,serif" font-size="14.00"> </text>
</g>
<!-- 4375265616 -->
<g id="node2" class="node">
<title>4375265616</title>
<path fill="lightgray" stroke="lightgray" d="M104,-146.5C104,-146.5 143,-146.5 143,-146.5 149,-146.5 155,-152.5 155,-158.5 155,-158.5 155,-170.5 155,-170.5 155,-176.5 149,-182.5 143,-182.5 143,-182.5 104,-182.5 104,-182.5 98,-182.5 92,-176.5 92,-170.5 92,-170.5 92,-158.5 92,-158.5 92,-152.5 98,-146.5 104,-146.5"/>
<text text-anchor="middle" x="102" y="-160.8" font-family="Times,serif" font-size="14.00"> </text>
<polyline fill="none" stroke="lightgray" points="112,-146.5 112,-182.5 "/>
<text text-anchor="middle" x="123.5" y="-160.8" font-family="Times,serif" font-size="14.00">0</text>
<polyline fill="none" stroke="lightgray" points="135,-146.5 135,-182.5 "/>
<text text-anchor="middle" x="145" y="-160.8" font-family="Times,serif" font-size="14.00"> </text>
</g>
<!-- 4374726032&#45;&gt;4375265616 -->
<g id="edge1" class="edge">
<title>4374726032:l&#45;&gt;4375265616:v</title>
<path fill="none" stroke="black" d="M149.5,-219C149.5,-203.43 133.31,-202.3 126.48,-192.83"/>
<polygon fill="black" stroke="black" points="129.75,-191.55 123.5,-183 123.06,-193.59 129.75,-191.55"/>
</g>
<!-- 4375266256 -->
<g id="node3" class="node">
<title>4375266256</title>
<path fill="lightgray" stroke="lightgray" d="M207,-146.5C207,-146.5 246,-146.5 246,-146.5 252,-146.5 258,-152.5 258,-158.5 258,-158.5 258,-170.5 258,-170.5 258,-176.5 252,-182.5 246,-182.5 246,-182.5 207,-182.5 207,-182.5 201,-182.5 195,-176.5 195,-170.5 195,-170.5 195,-158.5 195,-158.5 195,-152.5 201,-146.5 207,-146.5"/>
<text text-anchor="middle" x="205" y="-160.8" font-family="Times,serif" font-size="14.00"> </text>
<polyline fill="none" stroke="lightgray" points="215,-146.5 215,-182.5 "/>
<text text-anchor="middle" x="226.5" y="-160.8" font-family="Times,serif" font-size="14.00">5</text>
<polyline fill="none" stroke="lightgray" points="238,-146.5 238,-182.5 "/>
<text text-anchor="middle" x="248" y="-160.8" font-family="Times,serif" font-size="14.00"> </text>
</g>
<!-- 4374726032&#45;&gt;4375266256 -->
<g id="edge2" class="edge">
<title>4374726032:r&#45;&gt;4375266256:v</title>
<path fill="none" stroke="black" d="M199.5,-219C199.5,-203.06 216.65,-202.37 223.61,-192.62"/>
<polygon fill="black" stroke="black" points="226.98,-193.58 226.5,-183 220.27,-191.57 226.98,-193.58"/>
</g>
<!-- 4375266192 -->
<g id="node4" class="node">
<title>4375266192</title>
<path fill="lightgray" stroke="lightgray" d="M71,-73.5C71,-73.5 110,-73.5 110,-73.5 116,-73.5 122,-79.5 122,-85.5 122,-85.5 122,-97.5 122,-97.5 122,-103.5 116,-109.5 110,-109.5 110,-109.5 71,-109.5 71,-109.5 65,-109.5 59,-103.5 59,-97.5 59,-97.5 59,-85.5 59,-85.5 59,-79.5 65,-73.5 71,-73.5"/>
<text text-anchor="middle" x="69" y="-87.8" font-family="Times,serif" font-size="14.00"> </text>
<polyline fill="none" stroke="lightgray" points="79,-73.5 79,-109.5 "/>
<text text-anchor="middle" x="90.5" y="-87.8" font-family="Times,serif" font-size="14.00">8</text>
<polyline fill="none" stroke="lightgray" points="102,-73.5 102,-109.5 "/>
<text text-anchor="middle" x="112" y="-87.8" font-family="Times,serif" font-size="14.00"> </text>
</g>
<!-- 4375265616&#45;&gt;4375266192 -->
<g id="edge3" class="edge">
<title>4375265616:l&#45;&gt;4375266192:v</title>
<path fill="none" stroke="black" d="M101.5,-146C101.5,-133.32 95.18,-128.79 92.12,-120.06"/>
<polygon fill="black" stroke="black" points="95.55,-119.31 90.5,-110 88.64,-120.43 95.55,-119.31"/>
</g>
<!-- 4375266384 -->
<g id="node5" class="node">
<title>4375266384</title>
<path fill="lightgray" stroke="lightgray" d="M196,-73.5C196,-73.5 235,-73.5 235,-73.5 241,-73.5 247,-79.5 247,-85.5 247,-85.5 247,-97.5 247,-97.5 247,-103.5 241,-109.5 235,-109.5 235,-109.5 196,-109.5 196,-109.5 190,-109.5 184,-103.5 184,-97.5 184,-97.5 184,-85.5 184,-85.5 184,-79.5 190,-73.5 196,-73.5"/>
<text text-anchor="middle" x="194" y="-87.8" font-family="Times,serif" font-size="14.00"> </text>
<polyline fill="none" stroke="lightgray" points="204,-73.5 204,-109.5 "/>
<text text-anchor="middle" x="215.5" y="-87.8" font-family="Times,serif" font-size="14.00">2</text>
<polyline fill="none" stroke="lightgray" points="227,-73.5 227,-109.5 "/>
<text text-anchor="middle" x="237" y="-87.8" font-family="Times,serif" font-size="14.00"> </text>
</g>
<!-- 4375266256&#45;&gt;4375266384 -->
<g id="edge4" class="edge">
<title>4375266256:l&#45;&gt;4375266384:v</title>
<path fill="none" stroke="black" d="M204.5,-146C204.5,-133.32 210.82,-128.79 213.88,-120.06"/>
<polygon fill="black" stroke="black" points="217.36,-120.43 215.5,-110 210.45,-119.31 217.36,-120.43"/>
</g>
<!-- 4375266320 -->
<g id="node6" class="node">
<title>4375266320</title>
<path fill="lightgray" stroke="lightgray" d="M12,-0.5C12,-0.5 51,-0.5 51,-0.5 57,-0.5 63,-6.5 63,-12.5 63,-12.5 63,-24.5 63,-24.5 63,-30.5 57,-36.5 51,-36.5 51,-36.5 12,-36.5 12,-36.5 6,-36.5 0,-30.5 0,-24.5 0,-24.5 0,-12.5 0,-12.5 0,-6.5 6,-0.5 12,-0.5"/>
<text text-anchor="middle" x="10" y="-14.8" font-family="Times,serif" font-size="14.00"> </text>
<polyline fill="none" stroke="lightgray" points="20,-0.5 20,-36.5 "/>
<text text-anchor="middle" x="31.5" y="-14.8" font-family="Times,serif" font-size="14.00">9</text>
<polyline fill="none" stroke="lightgray" points="43,-0.5 43,-36.5 "/>
<text text-anchor="middle" x="53" y="-14.8" font-family="Times,serif" font-size="14.00"> </text>
</g>
<!-- 4375266192&#45;&gt;4375266320 -->
<g id="edge5" class="edge">
<title>4375266192:l&#45;&gt;4375266320:v</title>
<path fill="none" stroke="black" d="M68.5,-73C68.5,-54.18 43.6,-57.45 34.65,-46.57"/>
<polygon fill="black" stroke="black" points="37.96,-45.4 31.5,-37 31.31,-47.59 37.96,-45.4"/>
</g>
<!-- 4375266064 -->
<g id="node7" class="node">
<title>4375266064</title>
<path fill="lightgray" stroke="lightgray" d="M93,-0.5C93,-0.5 132,-0.5 132,-0.5 138,-0.5 144,-6.5 144,-12.5 144,-12.5 144,-24.5 144,-24.5 144,-30.5 138,-36.5 132,-36.5 132,-36.5 93,-36.5 93,-36.5 87,-36.5 81,-30.5 81,-24.5 81,-24.5 81,-12.5 81,-12.5 81,-6.5 87,-0.5 93,-0.5"/>
<text text-anchor="middle" x="91" y="-14.8" font-family="Times,serif" font-size="14.00"> </text>
<polyline fill="none" stroke="lightgray" points="101,-0.5 101,-36.5 "/>
<text text-anchor="middle" x="112.5" y="-14.8" font-family="Times,serif" font-size="14.00">4</text>
<polyline fill="none" stroke="lightgray" points="124,-0.5 124,-36.5 "/>
<text text-anchor="middle" x="134" y="-14.8" font-family="Times,serif" font-size="14.00"> </text>
</g>
<!-- 4375266192&#45;&gt;4375266064 -->
<g id="edge6" class="edge">
<title>4375266192:r&#45;&gt;4375266064:v</title>
<path fill="none" stroke="black" d="M112.5,-73C112.5,-61 112.5,-55.75 112.5,-47.12"/>
<polygon fill="black" stroke="black" points="116,-47 112.5,-37 109,-47 116,-47"/>
</g>
<!-- 4375266448 -->
<g id="node8" class="node">
<title>4375266448</title>
<path fill="lightgray" stroke="lightgray" d="M174,-0.5C174,-0.5 213,-0.5 213,-0.5 219,-0.5 225,-6.5 225,-12.5 225,-12.5 225,-24.5 225,-24.5 225,-30.5 219,-36.5 213,-36.5 213,-36.5 174,-36.5 174,-36.5 168,-36.5 162,-30.5 162,-24.5 162,-24.5 162,-12.5 162,-12.5 162,-6.5 168,-0.5 174,-0.5"/>
<text text-anchor="middle" x="172" y="-14.8" font-family="Times,serif" font-size="14.00"> </text>
<polyline fill="none" stroke="lightgray" points="182,-0.5 182,-36.5 "/>
<text text-anchor="middle" x="193.5" y="-14.8" font-family="Times,serif" font-size="14.00">7</text>
<polyline fill="none" stroke="lightgray" points="205,-0.5 205,-36.5 "/>
<text text-anchor="middle" x="215" y="-14.8" font-family="Times,serif" font-size="14.00"> </text>
</g>
<!-- 4375266384&#45;&gt;4375266448 -->
<g id="edge7" class="edge">
<title>4375266384:l&#45;&gt;4375266448:v</title>
<path fill="none" stroke="black" d="M193.5,-73C193.5,-61 193.5,-55.75 193.5,-47.12"/>
<polygon fill="black" stroke="black" points="197,-47 193.5,-37 190,-47 197,-47"/>
</g>
<!-- 4375266512 -->
<g id="node9" class="node">
<title>4375266512</title>
<path fill="lightgray" stroke="lightgray" d="M255,-0.5C255,-0.5 294,-0.5 294,-0.5 300,-0.5 306,-6.5 306,-12.5 306,-12.5 306,-24.5 306,-24.5 306,-30.5 300,-36.5 294,-36.5 294,-36.5 255,-36.5 255,-36.5 249,-36.5 243,-30.5 243,-24.5 243,-24.5 243,-12.5 243,-12.5 243,-6.5 249,-0.5 255,-0.5"/>
<text text-anchor="middle" x="253" y="-14.8" font-family="Times,serif" font-size="14.00"> </text>
<polyline fill="none" stroke="lightgray" points="263,-0.5 263,-36.5 "/>
<text text-anchor="middle" x="274.5" y="-14.8" font-family="Times,serif" font-size="14.00">6</text>
<polyline fill="none" stroke="lightgray" points="286,-0.5 286,-36.5 "/>
<text text-anchor="middle" x="296" y="-14.8" font-family="Times,serif" font-size="14.00"> </text>
</g>
<!-- 4375266384&#45;&gt;4375266512 -->
<g id="edge8" class="edge">
<title>4375266384:r&#45;&gt;4375266512:v</title>
<path fill="none" stroke="black" d="M237.5,-73C237.5,-54.18 262.4,-57.45 271.35,-46.57"/>
<polygon fill="black" stroke="black" points="274.69,-47.59 274.5,-37 268.04,-45.4 274.69,-47.59"/>
</g>
</g>
</svg>