<?xml version="1.0" encoding="UTF-8" standalone="no"?>
<!DOCTYPE svg PUBLIC "-//W3C//DTD SVG 1.1//EN"
 "http://www.w3.org/Graphics/SVG/1.1/DTD/svg11.dtd">
<!-- Generated by graphviz version 2.49.0 (0)
 -->
<!-- Pages: 1 -->
<svg width="417pt" height="264pt"
 viewBox="0.00 0.00 417.00 264.00" xmlns="http://www.w3.org/2000/svg" xmlns:xlink="http://www.w3.org/1999/xlink">
<g id="graph0" class="graph" transform="scale(1 1) rotate(0) translate(4 260)">
<polygon fill="white" stroke="transparent" points="-4,4 -4,-260 413,-260 413,4 -4,4"/>
<!-- 4383122000 -->
<g id="node1" class="node">
<title>4383122000</title>
<path fill="lightgray" stroke="lightgray" d="M235,-219.5C235,-219.5 274,-219.5 274,-219.5 280,-219.5 286,-225.5 286,-231.5 286,-231.5 286,-243.5 286,-243.5 286,-249.5 280,-255.5 274,-255.5 274,-255.5 235,-255.5 235,-255.5 229,-255.5 223,-249.5 223,-243.5 223,-243.5 223,-231.5 223,-231.5 223,-225.5 229,-219.5 235,-219.5"/>
<text text-anchor="middle" x="233" y="-233.8" font-family="Times,serif" font-size="14.00"> </text>
<polyline fill="none" stroke="lightgray" points="243,-219.5 243,-255.5 "/>
<text text-anchor="middle" x="254.5" y="-233.8" font-family="Times,serif" font-size="14.00">8</text>
<polyline fill="none" stroke="lightgray" points="266,-219.5 266,-255.5 "/>
<text text-anchor="middle" x="276" y="-233.8" font-family="Times,serif" font-size="14.00"> </text>
</g>
<!-- 4383655632 -->
<g id="node2" class="node">
<title>4383655632</title>
<path fill="lightgray" stroke="lightgray" d="M167.5,-146.5C167.5,-146.5 213.5,-146.5 213.5,-146.5 219.5,-146.5 225.5,-152.5 225.5,-158.5 225.5,-158.5 225.5,-170.5 225.5,-170.5 225.5,-176.5 219.5,-182.5 213.5,-182.5 213.5,-182.5 167.5,-182.5 167.5,-182.5 161.5,-182.5 155.5,-176.5 155.5,-170.5 155.5,-170.5 155.5,-158.5 155.5,-158.5 155.5,-152.5 161.5,-146.5 167.5,-146.5"/>
<text text-anchor="middle" x="165.5" y="-160.8" font-family="Times,serif" font-size="14.00"> </text>
<polyline fill="none" stroke="lightgray" points="175.5,-146.5 175.5,-182.5 "/>
<text text-anchor="middle" x="190.5" y="-160.8" font-family="Times,serif" font-size="14.00">13</text>
<polyline fill="none" stroke="lightgray" points="205.5,-146.5 205.5,-182.5 "/>
<text text-anchor="middle" x="215.5" y="-160.8" font-family="Times,serif" font-size="14.00"> </text>
</g>
<!-- 4383122000&#45;&gt;4383655632 -->
<g id="edge1" class="edge">
<title>4383122000:l&#45;&gt;4383655632:v</title>
<path fill="none" stroke="black" d="M232.5,-219C232.5,-198.64 203.7,-204.17 193.8,-192.71"/>
<polygon fill="black" stroke="black" points="197.03,-191.35 190.5,-183 190.4,-193.59 197.03,-191.35"/>
</g>
<!-- 4383654864 -->
<g id="node3" class="node">
<title>4383654864</title>
<path fill="lightgray" stroke="lightgray" d="M299,-146.5C299,-146.5 338,-146.5 338,-146.5 344,-146.5 350,-152.5 350,-158.5 350,-158.5 350,-170.5 350,-170.5 350,-176.5 344,-182.5 338,-182.5 338,-182.5 299,-182.5 299,-182.5 293,-182.5 287,-176.5 287,-170.5 287,-170.5 287,-158.5 287,-158.5 287,-152.5 293,-146.5 299,-146.5"/>
<text text-anchor="middle" x="297" y="-160.8" font-family="Times,serif" font-size="14.00"> </text>
<polyline fill="none" stroke="lightgray" points="307,-146.5 307,-182.5 "/>
<text text-anchor="middle" x="318.5" y="-160.8" font-family="Times,serif" font-size="14.00">3</text>
<polyline fill="none" stroke="lightgray" points="330,-146.5 330,-182.5 "/>
<text text-anchor="middle" x="340" y="-160.8" font-family="Times,serif" font-size="14.00"> </text>
</g>
<!-- 4383122000&#45;&gt;4383654864 -->
<g id="edge2" class="edge">
<title>4383122000:r&#45;&gt;4383654864:v</title>
<path fill="none" stroke="black" d="M276.5,-219C276.5,-198.64 305.3,-204.17 315.2,-192.71"/>
<polygon fill="black" stroke="black" points="318.6,-193.59 318.5,-183 311.97,-191.35 318.6,-193.59"/>
</g>
<!-- 4383655888 -->
<g id="node4" class="node">
<title>4383655888</title>
<path fill="lightgray" stroke="lightgray" d="M64.5,-73.5C64.5,-73.5 110.5,-73.5 110.5,-73.5 116.5,-73.5 122.5,-79.5 122.5,-85.5 122.5,-85.5 122.5,-97.5 122.5,-97.5 122.5,-103.5 116.5,-109.5 110.5,-109.5 110.5,-109.5 64.5,-109.5 64.5,-109.5 58.5,-109.5 52.5,-103.5 52.5,-97.5 52.5,-97.5 52.5,-85.5 52.5,-85.5 52.5,-79.5 58.5,-73.5 64.5,-73.5"/>
<text text-anchor="middle" x="62.5" y="-87.8" font-family="Times,serif" font-size="14.00"> </text>
<polyline fill="none" stroke="lightgray" points="72.5,-73.5 72.5,-109.5 "/>
<text text-anchor="middle" x="87.5" y="-87.8" font-family="Times,serif" font-size="14.00">11</text>
<polyline fill="none" stroke="lightgray" points="102.5,-73.5 102.5,-109.5 "/>
<text text-anchor="middle" x="112.5" y="-87.8" font-family="Times,serif" font-size="14.00"> </text>
</g>
<!-- 4383655632&#45;&gt;4383655888 -->
<g id="edge3" class="edge">
<title>4383655632:l&#45;&gt;4383655888:v</title>
<path fill="none" stroke="black" d="M165.5,-146C165.5,-112 103.63,-140.29 90.1,-119.91"/>
<polygon fill="black" stroke="black" points="93.42,-118.79 87.5,-110 86.65,-120.56 93.42,-118.79"/>
</g>
<!-- 4383655504 -->
<g id="node5" class="node">
<title>4383655504</title>
<path fill="lightgray" stroke="lightgray" d="M196,-73.5C196,-73.5 235,-73.5 235,-73.5 241,-73.5 247,-79.5 247,-85.5 247,-85.5 247,-97.5 247,-97.5 247,-103.5 241,-109.5 235,-109.5 235,-109.5 196,-109.5 196,-109.5 190,-109.5 184,-103.5 184,-97.5 184,-97.5 184,-85.5 184,-85.5 184,-79.5 190,-73.5 196,-73.5"/>
<text text-anchor="middle" x="194" y="-87.8" font-family="Times,serif" font-size="14.00"> </text>
<polyline fill="none" stroke="lightgray" points="204,-73.5 204,-109.5 "/>
<text text-anchor="middle" x="215.5" y="-87.8" font-family="Times,serif" font-size="14.00">0</text>
<polyline fill="none" stroke="lightgray" points="227,-73.5 227,-109.5 "/>
<text text-anchor="middle" x="237" y="-87.8" font-family="Times,serif" font-size="14.00"> </text>
</g>
<!-- 4383655632&#45;&gt;4383655504 -->
<g id="edge4" class="edge">
<title>4383655632:r&#45;&gt;4383655504:v</title>
<path fill="none" stroke="black" d="M215.5,-146C215.5,-134 215.5,-128.75 215.5,-120.12"/>
<polygon fill="black" stroke="black" points="219,-120 215.5,-110 212,-120 219,-120"/>
</g>
<!-- 4383655760 -->
<g id="node6" class="node">
<title>4383655760</title>
<path fill="lightgray" stroke="lightgray" d="M277,-73.5C277,-73.5 316,-73.5 316,-73.5 322,-73.5 328,-79.5 328,-85.5 328,-85.5 328,-97.5 328,-97.5 328,-103.5 322,-109.5 316,-109.5 316,-109.5 277,-109.5 277,-109.5 271,-109.5 265,-103.5 265,-97.5 265,-97.5 265,-85.5 265,-85.5 265,-79.5 271,-73.5 277,-73.5"/>
<text text-anchor="middle" x="275" y="-87.8" font-family="Times,serif" font-size="14.00"> </text>
<polyline fill="none" stroke="lightgray" points="285,-73.5 285,-109.5 "/>
<text text-anchor="middle" x="296.5" y="-87.8" font-family="Times,serif" font-size="14.00">2</text>
<polyline fill="none" stroke="lightgray" points="308,-73.5 308,-109.5 "/>
<text text-anchor="middle" x="318" y="-87.8" font-family="Times,serif" font-size="14.00"> </text>
</g>
<!-- 4383654864&#45;&gt;4383655760 -->
<g id="edge5" class="edge">
<title>4383654864:l&#45;&gt;4383655760:v</title>
<path fill="none" stroke="black" d="M296.5,-146C296.5,-134 296.5,-128.75 296.5,-120.12"/>
<polygon fill="black" stroke="black" points="300,-120 296.5,-110 293,-120 300,-120"/>
</g>
<!-- 4383655696 -->
<g id="node7" class="node">
<title>4383655696</title>
<path fill="lightgray" stroke="lightgray" d="M358,-73.5C358,-73.5 397,-73.5 397,-73.5 403,-73.5 409,-79.5 409,-85.5 409,-85.5 409,-97.5 409,-97.5 409,-103.5 403,-109.5 397,-109.5 397,-109.5 358,-109.5 358,-109.5 352,-109.5 346,-103.5 346,-97.5 346,-97.5 346,-85.5 346,-85.5 346,-79.5 352,-73.5 358,-73.5"/>
<text text-anchor="middle" x="356" y="-87.8" font-family="Times,serif" font-size="14.00"> </text>
<polyline fill="none" stroke="lightgray" points="366,-73.5 366,-109.5 "/>
<text text-anchor="middle" x="377.5" y="-87.8" font-family="Times,serif" font-size="14.00">9</text>
<polyline fill="none" stroke="lightgray" points="389,-73.5 389,-109.5 "/>
<text text-anchor="middle" x="399" y="-87.8" font-family="Times,serif" font-size="14.00"> </text>
</g>
<!-- 4383654864&#45;&gt;4383655696 -->
<g id="edge6" class="edge">
<title>4383654864:r&#45;&gt;4383655696:v</title>
<path fill="none" stroke="black" d="M340.5,-146C340.5,-127.18 365.4,-130.45 374.35,-119.57"/>
<polygon fill="black" stroke="black" points="377.69,-120.59 377.5,-110 371.04,-118.4 377.69,-120.59"/>
</g>
<!-- 4383656080 -->
<g id="node8" class="node">
<title>4383656080</title>
<path fill="lightgray" stroke="lightgray" d="M12,-0.5C12,-0.5 51,-0.5 51,-0.5 57,-0.5 63,-6.5 63,-12.5 63,-12.5 63,-24.5 63,-24.5 63,-30.5 57,-36.5 51,-36.5 51,-36.5 12,-36.5 12,-36.5 6,-36.5 0,-30.5 0,-24.5 0,-24.5 0,-12.5 0,-12.5 0,-6.5 6,-0.5 12,-0.5"/>
<text text-anchor="middle" x="10" y="-14.8" font-family="Times,serif" font-size="14.00"> </text>
<polyline fill="none" stroke="lightgray" points="20,-0.5 20,-36.5 "/>
<text text-anchor="middle" x="31.5" y="-14.8" font-family="Times,serif" font-size="14.00">1</text>
<polyline fill="none" stroke="lightgray" points="43,-0.5 43,-36.5 "/>
<text text-anchor="middle" x="53" y="-14.8" font-family="Times,serif" font-size="14.00"> </text>
</g>
<!-- 4383655888&#45;&gt;4383656080 -->
<g id="edge7" class="edge">
<title>4383655888:l&#45;&gt;4383656080:v</title>
<path fill="none" stroke="black" d="M62.5,-73C62.5,-56.01 42.43,-56.72 34.59,-46.65"/>
<polygon fill="black" stroke="black" points="37.88,-45.46 31.5,-37 31.21,-47.59 37.88,-45.46"/>
</g>
<!-- 4383655952 -->
<g id="node9" class="node">
<title>4383655952</title>
<path fill="lightgray" stroke="lightgray" d="M93,-0.5C93,-0.5 132,-0.5 132,-0.5 138,-0.5 144,-6.5 144,-12.5 144,-12.5 144,-24.5 144,-24.5 144,-30.5 138,-36.5 132,-36.5 132,-36.5 93,-36.5 93,-36.5 87,-36.5 81,-30.5 81,-24.5 81,-24.5 81,-12.5 81,-12.5 81,-6.5 87,-0.5 93,-0.5"/>
<text text-anchor="middle" x="91" y="-14.8" font-family="Times,serif" font-size="14.00"> </text>
<polyline fill="none" stroke="lightgray" points="101,-0.5 101,-36.5 "/>
<text text-anchor="middle" x="112.5" y="-14.8" font-family="Times,serif" font-size="14.00">4</text>
<polyline fill="none" stroke="lightgray" points="124,-0.5 124,-36.5 "/>
<text text-anchor="middle" x="134" y="-14.8" font-family="Times,serif" font-size="14.00"> </text>
</g>
<!-- 4383655888&#45;&gt;4383655952 -->
<g id="edge8" class="edge">
<title>4383655888:r&#45;&gt;4383655952:v</title>
<path fill="none" stroke="black" d="M112.5,-73C112.5,-61 112.5,-55.75 112.5,-47.12"/>
<polygon fill="black" stroke="black" points="116,-47 112.5,-37 109,-47 116,-47"/>
</g>
<!-- 4383655824 -->
<g id="node10" class="node">
<title>4383655824</title>
<path fill="lightgray" stroke="lightgray" d="M174,-0.5C174,-0.5 213,-0.5 213,-0.5 219,-0.5 225,-6.5 225,-12.5 225,-12.5 225,-24.5 225,-24.5 225,-30.5 219,-36.5 213,-36.5 213,-36.5 174,-36.5 174,-36.5 168,-36.5 162,-30.5 162,-24.5 162,-24.5 162,-12.5 162,-12.5 162,-6.5 168,-0.5 174,-0.5"/>
<text text-anchor="middle" x="172" y="-14.8" font-family="Times,serif" font-size="14.00"> </text>
<polyline fill="none" stroke="lightgray" points="182,-0.5 182,-36.5 "/>
<text text-anchor="middle" x="193.5" y="-14.8" font-family="Times,serif" font-size="14.00">7</text>
<polyline fill="none" stroke="lightgray" points="205,-0.5 205,-36.5 "/>
<text text-anchor="middle" x="215" y="-14.8" font-family="Times,serif" font-size="14.00"> </text>
</g>
<!-- 4383655504&#45;&gt;4383655824 -->
<g id="edge9" class="edge">
<title>4383655504:l&#45;&gt;4383655824:v</title>
<path fill="none" stroke="black" d="M193.5,-73C193.5,-61 193.5,-55.75 193.5,-47.12"/>
<polygon fill="black" stroke="black" points="197,-47 193.5,-37 190,-47 197,-47"/>
</g>
<!-- 4383656016 -->
<g id="node11" class="node">
<title>4383656016</title>
<path fill="lightgray" stroke="lightgray" d="M255,-0.5C255,-0.5 294,-0.5 294,-0.5 300,-0.5 306,-6.5 306,-12.5 306,-12.5 306,-24.5 306,-24.5 306,-30.5 300,-36.5 294,-36.5 294,-36.5 255,-36.5 255,-36.5 249,-36.5 243,-30.5 243,-24.5 243,-24.5 243,-12.5 243,-12.5 243,-6.5 249,-0.5 255,-0.5"/>
<text text-anchor="middle" x="253" y="-14.8" font-family="Times,serif" font-size="14.00"> </text>
<polyline fill="none" stroke="lightgray" points="263,-0.5 263,-36.5 "/>
<text text-anchor="middle" x="274.5" y="-14.8" font-family="Times,serif" font-size="14.00">5</text>
<polyline fill="none" stroke="lightgray" points="286,-0.5 286,-36.5 "/>
<text text-anchor="middle" x="296" y="-14.8" font-family="Times,serif" font-size="14.00"> </text>
</g>
<!-- 4383655760&#45;&gt;4383656016 -->
<g id="edge10" class="edge">
<title>4383655760:l&#45;&gt;4383656016:v</title>
<path fill="none" stroke="black" d="M274.5,-73C274.5,-61 274.5,-55.75 274.5,-47.12"/>
<polygon fill="black" stroke="black" points="278,-47 274.5,-37 271,-47 278,-47"/>
</g>
</g>
</svg>