<?xml version="1.0" encoding="UTF-8" standalone="no"?>
<!DOCTYPE svg PUBLIC "-//W3C//DTD SVG 1.1//EN"
 "http://www.w3.org/Graphics/SVG/1.1/DTD/svg11.dtd">
<!-- Generated by graphviz version 2.49.0 (0)
 -->
<!-- Pages: 1 -->
<svg width="523pt" height="264pt"
 viewBox="0.00 0.00 522.50 264.00" xmlns="http://www.w3.org/2000/svg" xmlns:xlink="http://www.w3.org/1999/xlink">
<g id="graph0" class="graph" transform="scale(1 1) rotate(0) translate(4 260)">
<polygon fill="white" stroke="transparent" points="-4,4 -4,-260 518.5,-260 518.5,4 -4,4"/>
<!-- 4402530128 -->
<g id="node1" class="node">
<title>4402530128</title>
<path fill="lightgray" stroke="lightgray" d="M312,-219.5C312,-219.5 358,-219.5 358,-219.5 364,-219.5 370,-225.5 370,-231.5 370,-231.5 370,-243.5 370,-243.5 370,-249.5 364,-255.5 358,-255.5 358,-255.5 312,-255.5 312,-255.5 306,-255.5 300,-249.5 300,-243.5 300,-243.5 300,-231.5 300,-231.5 300,-225.5 306,-219.5 312,-219.5"/>
<text text-anchor="middle" x="310" y="-233.8" font-family="Times,serif" font-size="14.00"> </text>
<polyline fill="none" stroke="lightgray" points="320,-219.5 320,-255.5 "/>
<text text-anchor="middle" x="335" y="-233.8" font-family="Times,serif" font-size="14.00">13</text>
<polyline fill="none" stroke="lightgray" points="350,-219.5 350,-255.5 "/>
<text text-anchor="middle" x="360" y="-233.8" font-family="Times,serif" font-size="14.00"> </text>
</g>
<!-- 4402531152 -->
<g id="node2" class="node">
<title>4402531152</title>
<path fill="lightgray" stroke="lightgray" d="M211.5,-146.5C211.5,-146.5 250.5,-146.5 250.5,-146.5 256.5,-146.5 262.5,-152.5 262.5,-158.5 262.5,-158.5 262.5,-170.5 262.5,-170.5 262.5,-176.5 256.5,-182.5 250.5,-182.5 250.5,-182.5 211.5,-182.5 211.5,-182.5 205.5,-182.5 199.5,-176.5 199.5,-170.5 199.5,-170.5 199.5,-158.5 199.5,-158.5 199.5,-152.5 205.5,-146.5 211.5,-146.5"/>
<text text-anchor="middle" x="209.5" y="-160.8" font-family="Times,serif" font-size="14.00"> </text>
<polyline fill="none" stroke="lightgray" points="219.5,-146.5 219.5,-182.5 "/>
<text text-anchor="middle" x="231" y="-160.8" font-family="Times,serif" font-size="14.00">4</text>
<polyline fill="none" stroke="lightgray" points="242.5,-146.5 242.5,-182.5 "/>
<text text-anchor="middle" x="252.5" y="-160.8" font-family="Times,serif" font-size="14.00"> </text>
</g>
<!-- 4402530128&#45;&gt;4402531152 -->
<g id="edge1" class="edge">
<title>4402530128:l&#45;&gt;4402531152:v</title>
<path fill="none" stroke="black" d="M310,-219C310,-184.48 246.79,-213.79 233.45,-192.73"/>
<polygon fill="black" stroke="black" points="236.84,-191.84 231,-183 230.05,-193.55 236.84,-191.84"/>
</g>
<!-- 4402531280 -->
<g id="node3" class="node">
<title>4402531280</title>
<path fill="lightgray" stroke="lightgray" d="M400.5,-146.5C400.5,-146.5 439.5,-146.5 439.5,-146.5 445.5,-146.5 451.5,-152.5 451.5,-158.5 451.5,-158.5 451.5,-170.5 451.5,-170.5 451.5,-176.5 445.5,-182.5 439.5,-182.5 439.5,-182.5 400.5,-182.5 400.5,-182.5 394.5,-182.5 388.5,-176.5 388.5,-170.5 388.5,-170.5 388.5,-158.5 388.5,-158.5 388.5,-152.5 394.5,-146.5 400.5,-146.5"/>
<text text-anchor="middle" x="398.5" y="-160.8" font-family="Times,serif" font-size="14.00"> </text>
<polyline fill="none" stroke="lightgray" points="408.5,-146.5 408.5,-182.5 "/>
<text text-anchor="middle" x="420" y="-160.8" font-family="Times,serif" font-size="14.00">0</text>
<polyline fill="none" stroke="lightgray" points="431.5,-146.5 431.5,-182.5 "/>
<text text-anchor="middle" x="441.5" y="-160.8" font-family="Times,serif" font-size="14.00"> </text>
</g>
<!-- 4402530128&#45;&gt;4402531280 -->
<g id="edge2" class="edge">
<title>4402530128:r&#45;&gt;4402531280:v</title>
<path fill="none" stroke="black" d="M360,-219C360,-192.03 405.12,-208.15 417.11,-192.63"/>
<polygon fill="black" stroke="black" points="420.47,-193.58 420,-183 413.77,-191.57 420.47,-193.58"/>
</g>
<!-- 4402531024 -->
<g id="node4" class="node">
<title>4402531024</title>
<path fill="lightgray" stroke="lightgray" d="M81.5,-73.5C81.5,-73.5 120.5,-73.5 120.5,-73.5 126.5,-73.5 132.5,-79.5 132.5,-85.5 132.5,-85.5 132.5,-97.5 132.5,-97.5 132.5,-103.5 126.5,-109.5 120.5,-109.5 120.5,-109.5 81.5,-109.5 81.5,-109.5 75.5,-109.5 69.5,-103.5 69.5,-97.5 69.5,-97.5 69.5,-85.5 69.5,-85.5 69.5,-79.5 75.5,-73.5 81.5,-73.5"/>
<text text-anchor="middle" x="79.5" y="-87.8" font-family="Times,serif" font-size="14.00"> </text>
<polyline fill="none" stroke="lightgray" points="89.5,-73.5 89.5,-109.5 "/>
<text text-anchor="middle" x="101" y="-87.8" font-family="Times,serif" font-size="14.00">2</text>
<polyline fill="none" stroke="lightgray" points="112.5,-73.5 112.5,-109.5 "/>
<text text-anchor="middle" x="122.5" y="-87.8" font-family="Times,serif" font-size="14.00"> </text>
</g>
<!-- 4402531152&#45;&gt;4402531024 -->
<g id="edge3" class="edge">
<title>4402531152:l&#45;&gt;4402531024:v</title>
<path fill="none" stroke="black" d="M209,-146C209,-99.36 117.22,-151.12 102.87,-119.85"/>
<polygon fill="black" stroke="black" points="106.31,-119.17 101,-110 99.43,-120.48 106.31,-119.17"/>
</g>
<!-- 4402531216 -->
<g id="node5" class="node">
<title>4402531216</title>
<path fill="lightgray" stroke="lightgray" d="M233.5,-73.5C233.5,-73.5 272.5,-73.5 272.5,-73.5 278.5,-73.5 284.5,-79.5 284.5,-85.5 284.5,-85.5 284.5,-97.5 284.5,-97.5 284.5,-103.5 278.5,-109.5 272.5,-109.5 272.5,-109.5 233.5,-109.5 233.5,-109.5 227.5,-109.5 221.5,-103.5 221.5,-97.5 221.5,-97.5 221.5,-85.5 221.5,-85.5 221.5,-79.5 227.5,-73.5 233.5,-73.5"/>
<text text-anchor="middle" x="231.5" y="-87.8" font-family="Times,serif" font-size="14.00"> </text>
<polyline fill="none" stroke="lightgray" points="241.5,-73.5 241.5,-109.5 "/>
<text text-anchor="middle" x="253" y="-87.8" font-family="Times,serif" font-size="14.00">9</text>
<polyline fill="none" stroke="lightgray" points="264.5,-73.5 264.5,-109.5 "/>
<text text-anchor="middle" x="274.5" y="-87.8" font-family="Times,serif" font-size="14.00"> </text>
</g>
<!-- 4402531152&#45;&gt;4402531216 -->
<g id="edge4" class="edge">
<title>4402531152:r&#45;&gt;4402531216:v</title>
<path fill="none" stroke="black" d="M253,-146C253,-134 253,-128.75 253,-120.12"/>
<polygon fill="black" stroke="black" points="256.5,-120 253,-110 249.5,-120 256.5,-120"/>
</g>
<!-- 4402531600 -->
<g id="node6" class="node">
<title>4402531600</title>
<path fill="lightgray" stroke="lightgray" d="M375,-73.5C375,-73.5 421,-73.5 421,-73.5 427,-73.5 433,-79.5 433,-85.5 433,-85.5 433,-97.5 433,-97.5 433,-103.5 427,-109.5 421,-109.5 421,-109.5 375,-109.5 375,-109.5 369,-109.5 363,-103.5 363,-97.5 363,-97.5 363,-85.5 363,-85.5 363,-79.5 369,-73.5 375,-73.5"/>
<text text-anchor="middle" x="373" y="-87.8" font-family="Times,serif" font-size="14.00"> </text>
<polyline fill="none" stroke="lightgray" points="383,-73.5 383,-109.5 "/>
<text text-anchor="middle" x="398" y="-87.8" font-family="Times,serif" font-size="14.00">10</text>
<polyline fill="none" stroke="lightgray" points="413,-73.5 413,-109.5 "/>
<text text-anchor="middle" x="423" y="-87.8" font-family="Times,serif" font-size="14.00"> </text>
</g>
<!-- 4402531280&#45;&gt;4402531600 -->
<g id="edge5" class="edge">
<title>4402531280:l&#45;&gt;4402531600:v</title>
<path fill="none" stroke="black" d="M398,-146C398,-134 398,-128.75 398,-120.12"/>
<polygon fill="black" stroke="black" points="401.5,-120 398,-110 394.5,-120 401.5,-120"/>
</g>
<!-- 4402531408 -->
<g id="node7" class="node">
<title>4402531408</title>
<path fill="lightgray" stroke="lightgray" d="M463.5,-73.5C463.5,-73.5 502.5,-73.5 502.5,-73.5 508.5,-73.5 514.5,-79.5 514.5,-85.5 514.5,-85.5 514.5,-97.5 514.5,-97.5 514.5,-103.5 508.5,-109.5 502.5,-109.5 502.5,-109.5 463.5,-109.5 463.5,-109.5 457.5,-109.5 451.5,-103.5 451.5,-97.5 451.5,-97.5 451.5,-85.5 451.5,-85.5 451.5,-79.5 457.5,-73.5 463.5,-73.5"/>
<text text-anchor="middle" x="461.5" y="-87.8" font-family="Times,serif" font-size="14.00"> </text>
<polyline fill="none" stroke="lightgray" points="471.5,-73.5 471.5,-109.5 "/>
<text text-anchor="middle" x="483" y="-87.8" font-family="Times,serif" font-size="14.00">8</text>
<polyline fill="none" stroke="lightgray" points="494.5,-73.5 494.5,-109.5 "/>
<text text-anchor="middle" x="504.5" y="-87.8" font-family="Times,serif" font-size="14.00"> </text>
</g>
<!-- 4402531280&#45;&gt;4402531408 -->
<g id="edge6" class="edge">
<title>4402531280:r&#45;&gt;4402531408:v</title>
<path fill="none" stroke="black" d="M442,-146C442,-125.92 470.12,-131.04 479.78,-119.62"/>
<polygon fill="black" stroke="black" points="483.15,-120.59 483,-110 476.51,-118.37 483.15,-120.59"/>
</g>
<!-- 4402531728 -->
<g id="node8" class="node">
<title>4402531728</title>
<path fill="lightgray" stroke="lightgray" d="M12,-0.5C12,-0.5 58,-0.5 58,-0.5 64,-0.5 70,-6.5 70,-12.5 70,-12.5 70,-24.5 70,-24.5 70,-30.5 64,-36.5 58,-36.5 58,-36.5 12,-36.5 12,-36.5 6,-36.5 0,-30.5 0,-24.5 0,-24.5 0,-12.5 0,-12.5 0,-6.5 6,-0.5 12,-0.5"/>
<text text-anchor="middle" x="10" y="-14.8" font-family="Times,serif" font-size="14.00"> </text>
<polyline fill="none" stroke="lightgray" points="20,-0.5 20,-36.5 "/>
<text text-anchor="middle" x="35" y="-14.8" font-family="Times,serif" font-size="14.00">12</text>
<polyline fill="none" stroke="lightgray" points="50,-0.5 50,-36.5 "/>
<text text-anchor="middle" x="60" y="-14.8" font-family="Times,serif" font-size="14.00"> </text>
</g>
<!-- 4402531024&#45;&gt;4402531728 -->
<g id="edge7" class="edge">
<title>4402531024:l&#45;&gt;4402531728:v</title>
<path fill="none" stroke="black" d="M79,-73C79,-51.88 48.25,-58.57 38.16,-46.57"/>
<polygon fill="black" stroke="black" points="41.46,-45.4 35,-37 34.82,-47.59 41.46,-45.4"/>
</g>
<!-- 4402531792 -->
<g id="node9" class="node">
<title>4402531792</title>
<path fill="lightgray" stroke="lightgray" d="M100,-0.5C100,-0.5 146,-0.5 146,-0.5 152,-0.5 158,-6.5 158,-12.5 158,-12.5 158,-24.5 158,-24.5 158,-30.5 152,-36.5 146,-36.5 146,-36.5 100,-36.5 100,-36.5 94,-36.5 88,-30.5 88,-24.5 88,-24.5 88,-12.5 88,-12.5 88,-6.5 94,-0.5 100,-0.5"/>
<text text-anchor="middle" x="98" y="-14.8" font-family="Times,serif" font-size="14.00"> </text>
<polyline fill="none" stroke="lightgray" points="108,-0.5 108,-36.5 "/>
<text text-anchor="middle" x="123" y="-14.8" font-family="Times,serif" font-size="14.00">11</text>
<polyline fill="none" stroke="lightgray" points="138,-0.5 138,-36.5 "/>
<text text-anchor="middle" x="148" y="-14.8" font-family="Times,serif" font-size="14.00"> </text>
</g>
<!-- 4402531024&#45;&gt;4402531792 -->
<g id="edge8" class="edge">
<title>4402531024:r&#45;&gt;4402531792:v</title>
<path fill="none" stroke="black" d="M123,-73C123,-61 123,-55.75 123,-47.12"/>
<polygon fill="black" stroke="black" points="126.5,-47 123,-37 119.5,-47 126.5,-47"/>
</g>
<!-- 4402531472 -->
<g id="node10" class="node">
<title>4402531472</title>
<path fill="lightgray" stroke="lightgray" d="M188,-0.5C188,-0.5 234,-0.5 234,-0.5 240,-0.5 246,-6.5 246,-12.5 246,-12.5 246,-24.5 246,-24.5 246,-30.5 240,-36.5 234,-36.5 234,-36.5 188,-36.5 188,-36.5 182,-36.5 176,-30.5 176,-24.5 176,-24.5 176,-12.5 176,-12.5 176,-6.5 182,-0.5 188,-0.5"/>
<text text-anchor="middle" x="186" y="-14.8" font-family="Times,serif" font-size="14.00"> </text>
<polyline fill="none" stroke="lightgray" points="196,-0.5 196,-36.5 "/>
<text text-anchor="middle" x="211" y="-14.8" font-family="Times,serif" font-size="14.00">14</text>
<polyline fill="none" stroke="lightgray" points="226,-0.5 226,-36.5 "/>
<text text-anchor="middle" x="236" y="-14.8" font-family="Times,serif" font-size="14.00"> </text>
</g>
<!-- 4402531216&#45;&gt;4402531472 -->
<g id="edge9" class="edge">
<title>4402531216:l&#45;&gt;4402531472:v</title>
<path fill="none" stroke="black" d="M231,-73C231,-58.84 219.04,-56 213.61,-46.97"/>
<polygon fill="black" stroke="black" points="216.92,-45.78 211,-37 210.15,-47.56 216.92,-45.78"/>
</g>
<!-- 4402531344 -->
<g id="node11" class="node">
<title>4402531344</title>
<path fill="lightgray" stroke="lightgray" d="M276.5,-0.5C276.5,-0.5 315.5,-0.5 315.5,-0.5 321.5,-0.5 327.5,-6.5 327.5,-12.5 327.5,-12.5 327.5,-24.5 327.5,-24.5 327.5,-30.5 321.5,-36.5 315.5,-36.5 315.5,-36.5 276.5,-36.5 276.5,-36.5 270.5,-36.5 264.5,-30.5 264.5,-24.5 264.5,-24.5 264.5,-12.5 264.5,-12.5 264.5,-6.5 270.5,-0.5 276.5,-0.5"/>
<text text-anchor="middle" x="274.5" y="-14.8" font-family="Times,serif" font-size="14.00"> </text>
<polyline fill="none" stroke="lightgray" points="284.5,-0.5 284.5,-36.5 "/>
<text text-anchor="middle" x="296" y="-14.8" font-family="Times,serif" font-size="14.00">1</text>
<polyline fill="none" stroke="lightgray" points="307.5,-0.5 307.5,-36.5 "/>
<text text-anchor="middle" x="317.5" y="-14.8" font-family="Times,serif" font-size="14.00"> </text>
</g>
<!-- 4402531216&#45;&gt;4402531344 -->
<g id="edge10" class="edge">
<title>4402531216:r&#45;&gt;4402531344:v</title>
<path fill="none" stroke="black" d="M275,-73C275,-58.53 287.82,-56 293.42,-46.76"/>
<polygon fill="black" stroke="black" points="296.83,-47.56 296,-37 290.06,-45.78 296.83,-47.56"/>
</g>
<!-- 4402531664 -->
<g id="node12" class="node">
<title>4402531664</title>
<path fill="lightgray" stroke="lightgray" d="M357.5,-0.5C357.5,-0.5 396.5,-0.5 396.5,-0.5 402.5,-0.5 408.5,-6.5 408.5,-12.5 408.5,-12.5 408.5,-24.5 408.5,-24.5 408.5,-30.5 402.5,-36.5 396.5,-36.5 396.5,-36.5 357.5,-36.5 357.5,-36.5 351.5,-36.5 345.5,-30.5 345.5,-24.5 345.5,-24.5 345.5,-12.5 345.5,-12.5 345.5,-6.5 351.5,-0.5 357.5,-0.5"/>
<text text-anchor="middle" x="355.5" y="-14.8" font-family="Times,serif" font-size="14.00"> </text>
<polyline fill="none" stroke="lightgray" points="365.5,-0.5 365.5,-36.5 "/>
<text text-anchor="middle" x="377" y="-14.8" font-family="Times,serif" font-size="14.00">5</text>
<polyline fill="none" stroke="lightgray" points="388.5,-0.5 388.5,-36.5 "/>
<text text-anchor="middle" x="398.5" y="-14.8" font-family="Times,serif" font-size="14.00"> </text>
</g>
<!-- 4402531600&#45;&gt;4402531664 -->
<g id="edge11" class="edge">
<title>4402531600:l&#45;&gt;4402531664:v</title>
<path fill="none" stroke="black" d="M373,-73C373,-60.93 375.25,-55.77 376.38,-47.15"/>
<polygon fill="black" stroke="black" points="379.88,-47.2 377,-37 372.89,-46.77 379.88,-47.2"/>
</g>
<!-- 4402531536 -->
<g id="node13" class="node">
<title>4402531536</title>
<path fill="lightgray" stroke="lightgray" d="M441.5,-0.5C441.5,-0.5 480.5,-0.5 480.5,-0.5 486.5,-0.5 492.5,-6.5 492.5,-12.5 492.5,-12.5 492.5,-24.5 492.5,-24.5 492.5,-30.5 486.5,-36.5 480.5,-36.5 480.5,-36.5 441.5,-36.5 441.5,-36.5 435.5,-36.5 429.5,-30.5 429.5,-24.5 429.5,-24.5 429.5,-12.5 429.5,-12.5 429.5,-6.5 435.5,-0.5 441.5,-0.5"/>
<text text-anchor="middle" x="439.5" y="-14.8" font-family="Times,serif" font-size="14.00"> </text>
<polyline fill="none" stroke="lightgray" points="449.5,-0.5 449.5,-36.5 "/>
<text text-anchor="middle" x="461" y="-14.8" font-family="Times,serif" font-size="14.00">7</text>
<polyline fill="none" stroke="lightgray" points="472.5,-0.5 472.5,-36.5 "/>
<text text-anchor="middle" x="482.5" y="-14.8" font-family="Times,serif" font-size="14.00"> </text>
</g>
<!-- 4402531408&#45;&gt;4402531536 -->
<g id="edge12" class="edge">
<title>4402531408:l&#45;&gt;4402531536:v</title>
<path fill="none" stroke="black" d="M461,-73C461,-61 461,-55.75 461,-47.12"/>
<polygon fill="black" stroke="black" points="464.5,-47 461,-37 457.5,-47 464.5,-47"/>
</g>
</g>
</svg>