<?xml version="1.0" encoding="UTF-8" standalone="no"?>
<!DOCTYPE svg PUBLIC "-//W3C//DTD SVG 1.1//EN"
 "http://www.w3.org/Graphics/SVG/1.1/DTD/svg11.dtd">
<!-- Generated by graphviz version 2.49.0 (0)
 -->
<!-- Pages: 1 -->
<svg width="410pt" height="264pt"
 viewBox="0.00 0.00 410.00 264.00" xmlns="http://www.w3.org/2000/svg" xmlns:xlink="http://www.w3.org/1999/xlink">
<g id="graph0" class="graph" transform="scale(1 1) rotate(0) translate(4 260)">
<polygon fill="white" stroke="transparent" points="-4,4 -4,-260 406,-260 406,4 -4,4"/>
<!-- 4425567184 -->
<g id="node1" class="node">
<title>4425567184</title>
<path fill="lightgray" stroke="lightgray" d="M151,-219.5C151,-219.5 190,-219.5 190,-219.5 196,-219.5 202,-225.5 202,-231.5 202,-231.5 202,-243.5 202,-243.5 202,-249.5 196,-255.5 190,-255.5 190,-255.5 151,-255.5 151,-255.5 145,-255.5 139,-249.5 139,-243.5 139,-243.5 139,-231.5 139,-231.5 139,-225.5 145,-219.5 151,-219.5"/>
<text text-anchor="middle" x="149" y="-233.8" font-family="Times,serif" font-size="14.00"> </text>
<polyline fill="none" stroke="lightgray" points="159,-219.5 159,-255.5 "/>
<text text-anchor="middle" x="170.5" y="-233.8" font-family="Times,serif" font-size="14.00">2</text>
<polyline fill="none" stroke="lightgray" points="182,-219.5 182,-255.5 "/>
<text text-anchor="middle" x="192" y="-233.8" font-family="Times,serif" font-size="14.00"> </text>
</g>
<!-- 4425567952 -->
<g id="node2" class="node">
<title>4425567952</title>
<path fill="lightgray" stroke="lightgray" d="M75,-146.5C75,-146.5 114,-146.5 114,-146.5 120,-146.5 126,-152.5 126,-158.5 126,-158.5 126,-170.5 126,-170.5 126,-176.5 120,-182.5 114,-182.5 114,-182.5 75,-182.5 75,-182.5 69,-182.5 63,-176.5 63,-170.5 63,-170.5 63,-158.5 63,-158.5 63,-152.5 69,-146.5 75,-146.5"/>
<text text-anchor="middle" x="73" y="-160.8" font-family="Times,serif" font-size="14.00"> </text>
<polyline fill="none" stroke="lightgray" points="83,-146.5 83,-182.5 "/>
<text text-anchor="middle" x="94.5" y="-160.8" font-family="Times,serif" font-size="14.00">1</text>
<polyline fill="none" stroke="lightgray" points="106,-146.5 106,-182.5 "/>
<text text-anchor="middle" x="116" y="-160.8" font-family="Times,serif" font-size="14.00"> </text>
</g>
<!-- 4425567184&#45;&gt;4425567952 -->
<g id="edge1" class="edge">
<title>4425567184:l&#45;&gt;4425567952:v</title>
<path fill="none" stroke="black" d="M148.5,-219C148.5,-194.44 109.34,-206.52 97.72,-192.84"/>
<polygon fill="black" stroke="black" points="100.93,-191.42 94.5,-183 94.28,-193.59 100.93,-191.42"/>
</g>
<!-- 4403742480 -->
<g id="node3" class="node">
<title>4403742480</title>
<path fill="lightgray" stroke="lightgray" d="M224.5,-146.5C224.5,-146.5 270.5,-146.5 270.5,-146.5 276.5,-146.5 282.5,-152.5 282.5,-158.5 282.5,-158.5 282.5,-170.5 282.5,-170.5 282.5,-176.5 276.5,-182.5 270.5,-182.5 270.5,-182.5 224.5,-182.5 224.5,-182.5 218.5,-182.5 212.5,-176.5 212.5,-170.5 212.5,-170.5 212.5,-158.5 212.5,-158.5 212.5,-152.5 218.5,-146.5 224.5,-146.5"/>
<text text-anchor="middle" x="222.5" y="-160.8" font-family="Times,serif" font-size="14.00"> </text>
<polyline fill="none" stroke="lightgray" points="232.5,-146.5 232.5,-182.5 "/>
<text text-anchor="middle" x="247.5" y="-160.8" font-family="Times,serif" font-size="14.00">14</text>
<polyline fill="none" stroke="lightgray" points="262.5,-146.5 262.5,-182.5 "/>
<text text-anchor="middle" x="272.5" y="-160.8" font-family="Times,serif" font-size="14.00"> </text>
</g>
<!-- 4425567184&#45;&gt;4403742480 -->
<g id="edge2" class="edge">
<title>4425567184:r&#45;&gt;4403742480:v</title>
<path fill="none" stroke="black" d="M192.5,-219C192.5,-194.12 232.38,-206.69 244.22,-192.93"/>
<polygon fill="black" stroke="black" points="247.69,-193.59 247.5,-183 241.04,-191.4 247.69,-193.59"/>
</g>
<!-- 4425568272 -->
<g id="node4" class="node">
<title>4425568272</title>
<path fill="lightgray" stroke="lightgray" d="M12,-73.5C12,-73.5 51,-73.5 51,-73.5 57,-73.5 63,-79.5 63,-85.5 63,-85.5 63,-97.5 63,-97.5 63,-103.5 57,-109.5 51,-109.5 51,-109.5 12,-109.5 12,-109.5 6,-109.5 0,-103.5 0,-97.5 0,-97.5 0,-85.5 0,-85.5 0,-79.5 6,-73.5 12,-73.5"/>
<text text-anchor="middle" x="10" y="-87.8" font-family="Times,serif" font-size="14.00"> </text>
<polyline fill="none" stroke="lightgray" points="20,-73.5 20,-109.5 "/>
<text text-anchor="middle" x="31.5" y="-87.8" font-family="Times,serif" font-size="14.00">5</text>
<polyline fill="none" stroke="lightgray" points="43,-73.5 43,-109.5 "/>
<text text-anchor="middle" x="53" y="-87.8" font-family="Times,serif" font-size="14.00"> </text>
</g>
<!-- 4425567952&#45;&gt;4425568272 -->
<g id="edge3" class="edge">
<title>4425567952:l&#45;&gt;4425568272:v</title>
<path fill="none" stroke="black" d="M72.5,-146C72.5,-125.92 44.38,-131.04 34.72,-119.62"/>
<polygon fill="black" stroke="black" points="37.99,-118.37 31.5,-110 31.35,-120.59 37.99,-118.37"/>
</g>
<!-- 4425568208 -->
<g id="node5" class="node">
<title>4425568208</title>
<path fill="lightgray" stroke="lightgray" d="M93.5,-73.5C93.5,-73.5 139.5,-73.5 139.5,-73.5 145.5,-73.5 151.5,-79.5 151.5,-85.5 151.5,-85.5 151.5,-97.5 151.5,-97.5 151.5,-103.5 145.5,-109.5 139.5,-109.5 139.5,-109.5 93.5,-109.5 93.5,-109.5 87.5,-109.5 81.5,-103.5 81.5,-97.5 81.5,-97.5 81.5,-85.5 81.5,-85.5 81.5,-79.5 87.5,-73.5 93.5,-73.5"/>
<text text-anchor="middle" x="91.5" y="-87.8" font-family="Times,serif" font-size="14.00"> </text>
<polyline fill="none" stroke="lightgray" points="101.5,-73.5 101.5,-109.5 "/>
<text text-anchor="middle" x="116.5" y="-87.8" font-family="Times,serif" font-size="14.00">10</text>
<polyline fill="none" stroke="lightgray" points="131.5,-73.5 131.5,-109.5 "/>
<text text-anchor="middle" x="141.5" y="-87.8" font-family="Times,serif" font-size="14.00"> </text>
</g>
<!-- 4425567952&#45;&gt;4425568208 -->
<g id="edge4" class="edge">
<title>4425567952:r&#45;&gt;4425568208:v</title>
<path fill="none" stroke="black" d="M116.5,-146C116.5,-134 116.5,-128.75 116.5,-120.12"/>
<polygon fill="black" stroke="black" points="120,-120 116.5,-110 113,-120 120,-120"/>
</g>
<!-- 4425567824 -->
<g id="node6" class="node">
<title>4425567824</title>
<path fill="lightgray" stroke="lightgray" d="M203,-73.5C203,-73.5 242,-73.5 242,-73.5 248,-73.5 254,-79.5 254,-85.5 254,-85.5 254,-97.5 254,-97.5 254,-103.5 248,-109.5 242,-109.5 242,-109.5 203,-109.5 203,-109.5 197,-109.5 191,-103.5 191,-97.5 191,-97.5 191,-85.5 191,-85.5 191,-79.5 197,-73.5 203,-73.5"/>
<text text-anchor="middle" x="201" y="-87.8" font-family="Times,serif" font-size="14.00"> </text>
<polyline fill="none" stroke="lightgray" points="211,-73.5 211,-109.5 "/>
<text text-anchor="middle" x="222.5" y="-87.8" font-family="Times,serif" font-size="14.00">3</text>
<polyline fill="none" stroke="lightgray" points="234,-73.5 234,-109.5 "/>
<text text-anchor="middle" x="244" y="-87.8" font-family="Times,serif" font-size="14.00"> </text>
</g>
<!-- 4403742480&#45;&gt;4425567824 -->
<g id="edge5" class="edge">
<title>4403742480:l&#45;&gt;4425567824:v</title>
<path fill="none" stroke="black" d="M222.5,-146C222.5,-134 222.5,-128.75 222.5,-120.12"/>
<polygon fill="black" stroke="black" points="226,-120 222.5,-110 219,-120 226,-120"/>
</g>
<!-- 4425568080 -->
<g id="node7" class="node">
<title>4425568080</title>
<path fill="lightgray" stroke="lightgray" d="M287.5,-73.5C287.5,-73.5 333.5,-73.5 333.5,-73.5 339.5,-73.5 345.5,-79.5 345.5,-85.5 345.5,-85.5 345.5,-97.5 345.5,-97.5 345.5,-103.5 339.5,-109.5 333.5,-109.5 333.5,-109.5 287.5,-109.5 287.5,-109.5 281.5,-109.5 275.5,-103.5 275.5,-97.5 275.5,-97.5 275.5,-85.5 275.5,-85.5 275.5,-79.5 281.5,-73.5 287.5,-73.5"/>
<text text-anchor="middle" x="285.5" y="-87.8" font-family="Times,serif" font-size="14.00"> </text>
<polyline fill="none" stroke="lightgray" points="295.5,-73.5 295.5,-109.5 "/>
<text text-anchor="middle" x="310.5" y="-87.8" font-family="Times,serif" font-size="14.00">12</text>
<polyline fill="none" stroke="lightgray" points="325.5,-73.5 325.5,-109.5 "/>
<text text-anchor="middle" x="335.5" y="-87.8" font-family="Times,serif" font-size="14.00"> </text>
</g>
<!-- 4403742480&#45;&gt;4425568080 -->
<g id="edge6" class="edge">
<title>4403742480:r&#45;&gt;4425568080:v</title>
<path fill="none" stroke="black" d="M272.5,-146C272.5,-126.92 298.07,-130.57 307.26,-119.66"/>
<polygon fill="black" stroke="black" points="310.64,-120.59 310.5,-110 304,-118.37 310.64,-120.59"/>
</g>
<!-- 4425568336 -->
<g id="node8" class="node">
<title>4425568336</title>
<path fill="lightgray" stroke="lightgray" d="M100,-0.5C100,-0.5 139,-0.5 139,-0.5 145,-0.5 151,-6.5 151,-12.5 151,-12.5 151,-24.5 151,-24.5 151,-30.5 145,-36.5 139,-36.5 139,-36.5 100,-36.5 100,-36.5 94,-36.5 88,-30.5 88,-24.5 88,-24.5 88,-12.5 88,-12.5 88,-6.5 94,-0.5 100,-0.5"/>
<text text-anchor="middle" x="98" y="-14.8" font-family="Times,serif" font-size="14.00"> </text>
<polyline fill="none" stroke="lightgray" points="108,-0.5 108,-36.5 "/>
<text text-anchor="middle" x="119.5" y="-14.8" font-family="Times,serif" font-size="14.00">4</text>
<polyline fill="none" stroke="lightgray" points="131,-0.5 131,-36.5 "/>
<text text-anchor="middle" x="141" y="-14.8" font-family="Times,serif" font-size="14.00"> </text>
</g>
<!-- 4425568208&#45;&gt;4425568336 -->
<g id="edge7" class="edge">
<title>4425568208:r&#45;&gt;4425568336:v</title>
<path fill="none" stroke="black" d="M141.5,-73C141.5,-58.35 128.07,-56.06 122.2,-46.82"/>
<polygon fill="black" stroke="black" points="125.52,-45.72 119.5,-37 118.77,-47.57 125.52,-45.72"/>
</g>
<!-- 4425568016 -->
<g id="node9" class="node">
<title>4425568016</title>
<path fill="lightgray" stroke="lightgray" d="M181,-0.5C181,-0.5 220,-0.5 220,-0.5 226,-0.5 232,-6.5 232,-12.5 232,-12.5 232,-24.5 232,-24.5 232,-30.5 226,-36.5 220,-36.5 220,-36.5 181,-36.5 181,-36.5 175,-36.5 169,-30.5 169,-24.5 169,-24.5 169,-12.5 169,-12.5 169,-6.5 175,-0.5 181,-0.5"/>
<text text-anchor="middle" x="179" y="-14.8" font-family="Times,serif" font-size="14.00"> </text>
<polyline fill="none" stroke="lightgray" points="189,-0.5 189,-36.5 "/>
<text text-anchor="middle" x="200.5" y="-14.8" font-family="Times,serif" font-size="14.00">9</text>
<polyline fill="none" stroke="lightgray" points="212,-0.5 212,-36.5 "/>
<text text-anchor="middle" x="222" y="-14.8" font-family="Times,serif" font-size="14.00"> </text>
</g>
<!-- 4425567824&#45;&gt;4425568016 -->
<g id="edge8" class="edge">
<title>4425567824:l&#45;&gt;4425568016:v</title>
<path fill="none" stroke="black" d="M200.5,-73C200.5,-61 200.5,-55.75 200.5,-47.12"/>
<polygon fill="black" stroke="black" points="204,-47 200.5,-37 197,-47 204,-47"/>
</g>
<!-- 4425568400 -->
<g id="node10" class="node">
<title>4425568400</title>
<path fill="lightgray" stroke="lightgray" d="M262.5,-0.5C262.5,-0.5 308.5,-0.5 308.5,-0.5 314.5,-0.5 320.5,-6.5 320.5,-12.5 320.5,-12.5 320.5,-24.5 320.5,-24.5 320.5,-30.5 314.5,-36.5 308.5,-36.5 308.5,-36.5 262.5,-36.5 262.5,-36.5 256.5,-36.5 250.5,-30.5 250.5,-24.5 250.5,-24.5 250.5,-12.5 250.5,-12.5 250.5,-6.5 256.5,-0.5 262.5,-0.5"/>
<text text-anchor="middle" x="260.5" y="-14.8" font-family="Times,serif" font-size="14.00"> </text>
<polyline fill="none" stroke="lightgray" points="270.5,-0.5 270.5,-36.5 "/>
<text text-anchor="middle" x="285.5" y="-14.8" font-family="Times,serif" font-size="14.00">11</text>
<polyline fill="none" stroke="lightgray" points="300.5,-0.5 300.5,-36.5 "/>
<text text-anchor="middle" x="310.5" y="-14.8" font-family="Times,serif" font-size="14.00"> </text>
</g>
<!-- 4425568080&#45;&gt;4425568400 -->
<g id="edge9" class="edge">
<title>4425568080:l&#45;&gt;4425568400:v</title>
<path fill="none" stroke="black" d="M285.5,-73C285.5,-61 285.5,-55.75 285.5,-47.12"/>
<polygon fill="black" stroke="black" points="289,-47 285.5,-37 282,-47 289,-47"/>
</g>
<!-- 4425568144 -->
<g id="node11" class="node">
<title>4425568144</title>
<path fill="lightgray" stroke="lightgray" d="M351,-0.5C351,-0.5 390,-0.5 390,-0.5 396,-0.5 402,-6.5 402,-12.5 402,-12.5 402,-24.5 402,-24.5 402,-30.5 396,-36.5 390,-36.5 390,-36.5 351,-36.5 351,-36.5 345,-36.5 339,-30.5 339,-24.5 339,-24.5 339,-12.5 339,-12.5 339,-6.5 345,-0.5 351,-0.5"/>
<text text-anchor="middle" x="349" y="-14.8" font-family="Times,serif" font-size="14.00"> </text>
<polyline fill="none" stroke="lightgray" points="359,-0.5 359,-36.5 "/>
<text text-anchor="middle" x="370.5" y="-14.8" font-family="Times,serif" font-size="14.00">8</text>
<polyline fill="none" stroke="lightgray" points="382,-0.5 382,-36.5 "/>
<text text-anchor="middle" x="392" y="-14.8" font-family="Times,serif" font-size="14.00"> </text>
</g>
<!-- 4425568080&#45;&gt;4425568144 -->
<g id="edge10" class="edge">
<title>4425568080:r&#45;&gt;4425568144:v</title>
<path fill="none" stroke="black" d="M335.5,-73C335.5,-54.87 358.61,-57.17 367.27,-46.7"/>
<polygon fill="black" stroke="black" points="370.66,-47.59 370.5,-37 364.02,-45.38 370.66,-47.59"/>
</g>
</g>
</svg>